<?xml version="1.0" encoding="UTF-8"?>
<svg version="1.1" xmlns="http://www.w3.org/2000/svg" width="319" height="319">
<path d="M0 0 C105.27 0 210.54 0 319 0 C319 105.27 319 210.54 319 319 C213.73 319 108.46 319 0 319 C0 213.73 0 108.46 0 0 Z " fill="#FCFCFA" transform="translate(0,0)"/>
<path d="M0 0 C0.99 0.99 0.99 0.99 2 2 C1.6420857 7.05515048 0.29601228 11.49118094 -1.40625 16.2421875 C-1.64703278 16.91981644 -1.88781555 17.59744537 -2.13589478 18.29560852 C-2.91772213 20.49101339 -3.70878362 22.68296353 -4.5 24.875 C-5.04339309 26.39603062 -5.58619396 27.91727293 -6.12841797 29.4387207 C-7.74304065 33.96248993 -9.36946776 38.48194385 -11 43 C-11.35850037 43.993414 -11.35850037 43.993414 -11.72424316 45.00689697 C-12.39140987 46.854957 -13.05897881 48.70287181 -13.7265625 50.55078125 C-14.33854492 52.24581787 -14.33854492 52.24581787 -14.96289062 53.97509766 C-15.71636119 56.05790558 -16.47269677 58.13968017 -17.23242188 60.22021484 C-19.00877862 65.11027121 -20.65148412 69.97434546 -22 75 C-10.38693607 71.6269748 -0.49561614 66.71534077 9.77392578 60.31958008 C10.67095215 59.76294678 11.56797852 59.20631348 12.4921875 58.6328125 C13.28995605 58.12637207 14.08772461 57.61993164 14.90966797 57.09814453 C17 56 17 56 20 56 C20.25652344 54.71738281 20.51304688 53.43476563 20.77734375 52.11328125 C21.93001449 46.94693637 23.64646066 42.11439138 25.5625 37.1875 C25.90748535 36.29184326 26.2524707 35.39618652 26.60791016 34.47338867 C29.19706192 27.845276 31.97165274 21.30871727 34.875 14.8125 C35.4464978 13.5299231 35.4464978 13.5299231 36.02954102 12.22143555 C36.38846436 11.43293213 36.7473877 10.64442871 37.1171875 9.83203125 C37.43284668 9.13827393 37.74850586 8.4445166 38.07373047 7.72973633 C39 6 39 6 41 4 C44.50337981 3.61919785 46.36278626 3.59754922 49.375 5.5 C50.179375 6.2425 50.179375 6.2425 51 7 C50.83250244 7.86512207 50.66500488 8.73024414 50.49243164 9.62158203 C50.01744633 12.88030622 49.96879071 15.77171086 50.12109375 19.0546875 C50.16943359 20.16328125 50.21777344 21.271875 50.26757812 22.4140625 C50.32365234 23.55617188 50.37972656 24.69828125 50.4375 25.875 C50.48970703 27.0403125 50.54191406 28.205625 50.59570312 29.40625 C50.72485797 32.27113925 50.85980182 35.13563347 51 38 C51.49177734 37.75878418 51.98355469 37.51756836 52.49023438 37.26904297 C61.12692904 33.05294063 69.77729943 28.8959977 78.75 25.4375 C79.37970703 25.18661621 80.00941406 24.93573242 80.65820312 24.67724609 C84.88820509 23.09947798 88.50842405 22.7754212 93 23 C92.91796875 24.78125 92.91796875 24.78125 92 27 C89.77076496 28.35665756 87.67795762 29.4347457 85.3125 30.5 C83.86909457 31.18329276 82.4278082 31.87107367 80.98828125 32.5625 C80.1988916 32.94148438 79.40950195 33.32046875 78.59619141 33.7109375 C73.65477085 36.16445457 68.83364317 38.84214346 64 41.5 C63.01427002 42.04076172 62.02854004 42.58152344 61.01293945 43.13867188 C58.67396037 44.42338461 56.33628287 45.71039253 54 47 C53.80297165 53.85188179 53.80297165 53.85188179 55 60.5625 C55.33 61.696875 55.66 62.83125 56 64 C56.3403125 63.33355469 56.680625 62.66710937 57.03125 61.98046875 C67.633352 41.81955669 67.633352 41.81955669 76 38 C79.12979394 37.41316364 80.94552004 37.33388329 83.67578125 39.05859375 C85.88906505 40.83872893 87.71888433 42.43776865 89 45 C89.6861122 51.35973234 88.58895261 56.20074615 86 62 C85 63 85 63 82.0625 63.1875 C79 63 79 63 77 61 C76.60235737 59.01178687 76.26224651 57.01055661 76 55 C70.32036259 63.36478189 65.48565191 71.43635205 62 81 C69.38656318 77.5967667 75.95513605 73.79875054 82.44921875 68.90234375 C91.70431211 62 91.70431211 62 95 62 C95.01417969 61.42636719 95.02835938 60.85273438 95.04296875 60.26171875 C95.41695986 53.60063376 96.75801455 47.36997171 98.4375 40.9375 C98.65494873 40.0921167 98.87239746 39.2467334 99.09643555 38.37573242 C99.41801636 37.18234253 99.41801636 37.18234253 99.74609375 35.96484375 C100.03504517 34.89157837 100.03504517 34.89157837 100.32983398 33.79663086 C101 32 101 32 103 30 C108.25265684 29.44120672 108.25265684 29.44120672 110.703125 31.2734375 C112 33 112 33 111.8125 36.9375 C111.56142776 38.62805307 111.28809759 40.31536155 111 42 C110.74089844 43.61261719 110.74089844 43.61261719 110.4765625 45.2578125 C110.0007151 48.17496393 109.50746966 51.08820807 109 54 C113.42432385 53.21275376 116.5472734 51.90831328 120 49 C122.80085665 43.63180391 123.89603276 37.4826451 125.30859375 31.63574219 C126.37025824 27.58852121 127.80723438 23.71252681 129.3125 19.8125 C129.56749268 19.13598389 129.82248535 18.45946777 130.08520508 17.76245117 C131.85352721 13.14647279 131.85352721 13.14647279 133 12 C136.4375 11.8125 136.4375 11.8125 140 12 C142 14 142 14 142.234375 16.77392578 C141.99701929 20.04102822 141.35525583 22.54319473 140.25 25.6171875 C139.70859375 27.14472656 139.70859375 27.14472656 139.15625 28.703125 C138.58390625 30.27320313 138.58390625 30.27320313 138 31.875 C137.42765625 33.47988281 137.42765625 33.47988281 136.84375 35.1171875 C135.90420064 37.74792571 134.95607866 40.37523351 134 43 C135.35544922 42.45859375 135.35544922 42.45859375 136.73828125 41.90625 C137.91777344 41.4421875 139.09726563 40.978125 140.3125 40.5 C141.48425781 40.0359375 142.65601563 39.571875 143.86328125 39.09375 C147 38 147 38 150 38 C150 39.32 150 40.64 150 42 C149.48614746 42.20866699 148.97229492 42.41733398 148.44287109 42.63232422 C137.37886926 47.14300118 137.37886926 47.14300118 129.6796875 55.7578125 C128.25379304 59.49343491 127.36615282 63.33372985 126.56982422 67.24658203 C125.94192894 70.28060217 125.1991555 73.27319793 124.44140625 76.27734375 C120.7980231 90.98561525 117.55387507 105.91170267 116.5625 121.0625 C116.376875 122.361875 116.19125 123.66125 116 125 C113.96484375 126.24609375 113.96484375 126.24609375 112 127 C105.38250172 107.14750517 113.09833118 78.70620157 118 59 C112.95194621 60.78123128 108.4619612 62.84474471 105 67 C102.18327952 73.28855268 101.38745265 80.29473934 100.42333984 87.06640625 C99.91000811 90.62361162 99.26200521 94.14721972 98.60400391 97.67993164 C98.03192454 100.78076276 97.51362715 103.88900628 97 107 C95.68 107.33 94.36 107.66 93 108 C91.51320275 105.02640551 91.88887395 102.33700821 91.90234375 99.0234375 C91.90446617 97.99556625 91.90446617 97.99556625 91.90663147 96.94692993 C91.91223325 94.75624239 91.92478594 92.5656567 91.9375 90.375 C91.94251478 88.89062648 91.94707772 87.40625135 91.95117188 85.921875 C91.96220323 82.28121685 91.97946901 78.64061836 92 75 C90.42814455 76.08631245 88.85821174 77.17540715 87.2890625 78.265625 C86.41459473 78.87180664 85.54012695 79.47798828 84.63916016 80.10253906 C82.13683751 81.90161877 79.75082141 83.78820966 77.375 85.75 C72.72055729 89.42238831 68.08408144 92 62 92 C62.2165625 92.65226562 62.433125 93.30453125 62.65625 93.9765625 C64.18502308 98.77521132 65.40269324 102.89921898 65 108 C62.63818359 107.74316406 62.63818359 107.74316406 60 107 C58.71728516 105.32714844 58.71728516 105.32714844 57.7890625 103.109375 C57.43448975 102.26802002 57.07991699 101.42666504 56.71459961 100.55981445 C56.35503174 99.63257568 55.99546387 98.70533691 55.625 97.75 C55.24287354 96.79375732 54.86074707 95.83751465 54.46704102 94.85229492 C49.76090005 82.52668764 44 66.28269339 44 53 C43.08476562 53.5053125 42.16953125 54.010625 41.2265625 54.53125 C40.02616155 55.18771927 38.82563413 55.8439573 37.625 56.5 C37.02171875 56.83386719 36.4184375 57.16773438 35.796875 57.51171875 C31.2265625 60 31.2265625 60 29 60 C28.82984375 60.73863281 28.6596875 61.47726563 28.484375 62.23828125 C27.25671979 67.37745493 25.94509764 72.37161133 24.0625 77.3125 C20.78303697 86.04948452 18.68031678 95.12654694 16.51953125 104.19140625 C16.25833496 105.27268799 15.99713867 106.35396973 15.72802734 107.46801758 C15.2070484 109.63093295 14.69542013 111.79612518 14.19384766 113.96362305 C13.95327637 114.96047119 13.71270508 115.95731934 13.46484375 116.984375 C13.254646 117.87866211 13.04444824 118.77294922 12.82788086 119.69433594 C11.93137725 122.19111566 11.10892568 123.4072263 9 125 C6.8125 124.6875 6.8125 124.6875 5 124 C4.89344422 117.55929529 5.03794912 111.37358711 6 105 C5.45730469 105.27714844 4.91460937 105.55429688 4.35546875 105.83984375 C3.64003906 106.20207031 2.92460938 106.56429687 2.1875 106.9375 C1.47980469 107.29714844 0.77210937 107.65679687 0.04296875 108.02734375 C-6.17122341 110.98591707 -13.9467501 111.20908382 -20.52734375 109.24609375 C-24.15248744 107.5246568 -27.19966308 105.71319491 -29 102 C-29.1875 99.25 -29.1875 99.25 -29 97 C-29.66 97 -30.32 97 -31 97 C-31.20625 98.134375 -31.4125 99.26875 -31.625 100.4375 C-32.84258641 105.96012407 -34.76813969 111.1826639 -36.68383789 116.49145508 C-38.61420182 121.85487899 -40.34769932 127.25234229 -41.9921875 132.7109375 C-43.1758498 136.57389741 -44.41960632 140.41399563 -45.6875 144.25 C-45.90220947 144.90693848 -46.11691895 145.56387695 -46.33813477 146.24072266 C-47.88159933 150.88159933 -47.88159933 150.88159933 -49 152 C-51.109375 152.37890625 -51.109375 152.37890625 -53.75 152.5625 C-54.61109375 152.64628906 -55.4721875 152.73007813 -56.359375 152.81640625 C-60.69123229 151.47711901 -61.98970269 147.79065866 -64 144 C-64.59345215 142.91759033 -65.1869043 141.83518066 -65.79833984 140.7199707 C-67.49452709 137.60919448 -69.14765293 134.47756503 -70.78588867 131.3359375 C-71.47369946 130.02214529 -72.16712578 128.71127861 -72.8659668 127.40332031 C-73.88762132 125.49114544 -74.89274019 123.57107823 -75.89453125 121.6484375 C-76.78942261 119.94953369 -76.78942261 119.94953369 -77.70239258 118.21630859 C-79.06694191 114.83407475 -79.38856643 112.60751196 -79 109 C-77.4453125 107.0859375 -77.4453125 107.0859375 -75.125 105.375 C-74.21621094 104.70210938 -73.30742188 104.02921875 -72.37109375 103.3359375 C-71.25055059 102.55275848 -70.12652783 101.77454593 -69 101 C-67.99477295 100.30632324 -67.99477295 100.30632324 -66.96923828 99.59863281 C-53.01882668 90.03637885 -53.01882668 90.03637885 -47.08984375 86.83984375 C-45.37474609 85.89818359 -45.37474609 85.89818359 -43.625 84.9375 C-42.62726562 84.43089844 -41.62953125 83.92429687 -40.6015625 83.40234375 C-36.57616981 79.68520185 -35.5706138 75.148216 -34 70 C-33.40415119 68.18212595 -32.80780061 66.36441628 -32.2109375 64.546875 C-31.59686602 62.61524724 -30.98497824 60.68292425 -30.375 58.75 C-29.68530352 56.57929751 -28.99517733 54.40873151 -28.3046875 52.23828125 C-27.75506348 50.50892334 -27.75506348 50.50892334 -27.19433594 48.74462891 C-24.98041751 41.80327961 -22.73906459 34.8707702 -20.5 27.9375 C-20.04994812 26.54330051 -19.59991512 25.14909493 -19.14990234 23.75488281 C-18.10025549 20.50315164 -17.0502428 17.25153875 -16 14 C-17.64162109 14.73669922 -17.64162109 14.73669922 -19.31640625 15.48828125 C-22.65605663 16.85884827 -24.48460748 17.31958114 -28 17 C-27.22106071 11.74215978 -23.83103875 8.47770754 -19.75 5.375 C-13.42724432 1.10141034 -7.62500724 -0.65732821 0 0 Z " fill="#292639" transform="translate(88,80)"/>
<path d="M0 0 C3.46464111 0.27173656 4.68165104 0.93690865 7.1875 3.25 C7.02000244 4.11512207 6.85250488 4.98024414 6.67993164 5.87158203 C6.20494633 9.13030622 6.15629071 12.02171086 6.30859375 15.3046875 C6.35693359 16.41328125 6.40527344 17.521875 6.45507812 18.6640625 C6.51115234 19.80617188 6.56722656 20.94828125 6.625 22.125 C6.70331055 23.87296875 6.70331055 23.87296875 6.78320312 25.65625 C6.91235797 28.52113925 7.04730182 31.38563347 7.1875 34.25 C7.67927734 34.00878418 8.17105469 33.76756836 8.67773438 33.51904297 C17.31442904 29.30294063 25.96479943 25.1459977 34.9375 21.6875 C35.56720703 21.43661621 36.19691406 21.18573242 36.84570312 20.92724609 C41.07570509 19.34947798 44.69592405 19.0254212 49.1875 19.25 C49.10546875 21.03125 49.10546875 21.03125 48.1875 23.25 C45.95826496 24.60665756 43.86545762 25.6847457 41.5 26.75 C40.05659457 27.43329276 38.6153082 28.12107367 37.17578125 28.8125 C36.3863916 29.19148438 35.59700195 29.57046875 34.78369141 29.9609375 C29.84227085 32.41445457 25.02114317 35.09214346 20.1875 37.75 C19.20177002 38.29076172 18.21604004 38.83152344 17.20043945 39.38867188 C14.86146037 40.67338461 12.52378287 41.96039253 10.1875 43.25 C9.99047165 50.10188179 9.99047165 50.10188179 11.1875 56.8125 C11.5175 57.946875 11.8475 59.08125 12.1875 60.25 C12.5278125 59.58355469 12.868125 58.91710937 13.21875 58.23046875 C23.820852 38.06955669 23.820852 38.06955669 32.1875 34.25 C35.31729394 33.66316364 37.13302004 33.58388329 39.86328125 35.30859375 C42.07656505 37.08872893 43.90638433 38.68776865 45.1875 41.25 C45.8736122 47.60973234 44.77645261 52.45074615 42.1875 58.25 C41.1875 59.25 41.1875 59.25 38.25 59.4375 C35.1875 59.25 35.1875 59.25 33.1875 57.25 C32.78985737 55.26178687 32.44974651 53.26055661 32.1875 51.25 C26.50786259 59.61478189 21.67315191 67.68635205 18.1875 77.25 C25.57406318 73.8467667 32.14263605 70.04875054 38.63671875 65.15234375 C47.89181211 58.25 47.89181211 58.25 51.1875 58.25 C51.20167969 57.67636719 51.21585937 57.10273438 51.23046875 56.51171875 C51.60445986 49.85063376 52.94551455 43.61997171 54.625 37.1875 C54.84244873 36.3421167 55.05989746 35.4967334 55.28393555 34.62573242 C55.60551636 33.43234253 55.60551636 33.43234253 55.93359375 32.21484375 C56.12622803 31.4993335 56.3188623 30.78382324 56.51733398 30.04663086 C57.1875 28.25 57.1875 28.25 59.1875 26.25 C64.44015684 25.69120672 64.44015684 25.69120672 66.890625 27.5234375 C68.1875 29.25 68.1875 29.25 68 33.1875 C67.74892776 34.87805307 67.47559759 36.56536155 67.1875 38.25 C67.01476562 39.32507813 66.84203125 40.40015625 66.6640625 41.5078125 C66.1882151 44.42496393 65.69496966 47.33820807 65.1875 50.25 C69.61182385 49.46275376 72.7347734 48.15831328 76.1875 45.25 C78.98835665 39.88180391 80.08353276 33.7326451 81.49609375 27.88574219 C82.55775824 23.83852121 83.99473438 19.96252681 85.5 16.0625 C85.88248901 15.04772583 85.88248901 15.04772583 86.27270508 14.01245117 C88.04102721 9.39647279 88.04102721 9.39647279 89.1875 8.25 C92.625 8.0625 92.625 8.0625 96.1875 8.25 C98.1875 10.25 98.1875 10.25 98.421875 13.02392578 C98.18451929 16.29102822 97.54275583 18.79319473 96.4375 21.8671875 C96.0765625 22.88554688 95.715625 23.90390625 95.34375 24.953125 C94.77140625 26.52320313 94.77140625 26.52320313 94.1875 28.125 C93.8059375 29.19492188 93.424375 30.26484375 93.03125 31.3671875 C92.09170064 33.99792571 91.14357866 36.62523351 90.1875 39.25 C91.09113281 38.8890625 91.99476563 38.528125 92.92578125 38.15625 C94.10527344 37.6921875 95.28476563 37.228125 96.5 36.75 C97.67175781 36.2859375 98.84351563 35.821875 100.05078125 35.34375 C103.1875 34.25 103.1875 34.25 106.1875 34.25 C106.1875 35.57 106.1875 36.89 106.1875 38.25 C105.67364746 38.45866699 105.15979492 38.66733398 104.63037109 38.88232422 C93.56636926 43.39300118 93.56636926 43.39300118 85.8671875 52.0078125 C84.44129304 55.74343491 83.55365282 59.58372985 82.75732422 63.49658203 C82.12942894 66.53060217 81.3866555 69.52319793 80.62890625 72.52734375 C76.9855231 87.23561525 73.74137507 102.16170267 72.75 117.3125 C72.4715625 119.2615625 72.4715625 119.2615625 72.1875 121.25 C70.15234375 122.49609375 70.15234375 122.49609375 68.1875 123.25 C61.57000172 103.39750517 69.28583118 74.95620157 74.1875 55.25 C69.13944621 57.03123128 64.6494612 59.09474471 61.1875 63.25 C58.37077952 69.53855268 57.57495265 76.54473934 56.61083984 83.31640625 C56.09750811 86.87361162 55.44950521 90.39721972 54.79150391 93.92993164 C54.21942454 97.03076276 53.70112715 100.13900628 53.1875 103.25 C51.8675 103.58 50.5475 103.91 49.1875 104.25 C47.70070275 101.27640551 48.07637395 98.58700821 48.08984375 95.2734375 C48.0912587 94.58819 48.09267365 93.9029425 48.09413147 93.19692993 C48.09973325 91.00624239 48.11228594 88.8156567 48.125 86.625 C48.13001478 85.14062648 48.13457772 83.65625135 48.13867188 82.171875 C48.14970323 78.53121685 48.16696901 74.89061836 48.1875 71.25 C46.61564455 72.33631245 45.04571174 73.42540715 43.4765625 74.515625 C42.60209473 75.12180664 41.72762695 75.72798828 40.82666016 76.35253906 C38.32433751 78.15161877 35.93832141 80.03820966 33.5625 82 C28.90805729 85.67238831 24.27158144 88.25 18.1875 88.25 C18.4040625 88.90226562 18.620625 89.55453125 18.84375 90.2265625 C20.37252308 95.02521132 21.59019324 99.14921898 21.1875 104.25 C18.83007812 104.01293945 18.83007812 104.01293945 16.1875 103.25 C14.87304688 101.43432617 14.87304688 101.43432617 13.90625 99.04296875 C13.54136475 98.15585205 13.17647949 97.26873535 12.80053711 96.35473633 C12.43323486 95.39204834 12.06593262 94.42936035 11.6875 93.4375 C11.10657593 91.95963013 11.10657593 91.95963013 10.51391602 90.4519043 C5.64742065 77.71059019 0.90858381 64.06229481 2.1875 50.25 C2.1875 49.59 2.1875 48.93 2.1875 48.25 C1.1975 48.25 0.2075 48.25 -0.8125 48.25 C-1.1425 47.59 -1.4725 46.93 -1.8125 46.25 C-2.34875 46.600625 -2.885 46.95125 -3.4375 47.3125 C-6.54524763 48.53924249 -8.60681703 47.97856431 -11.8125 47.25 C-11.8125 46.59 -11.8125 45.93 -11.8125 45.25 C-10.1328125 43.9609375 -10.1328125 43.9609375 -7.9375 42.625 C-7.21820313 42.17898437 -6.49890625 41.73296875 -5.7578125 41.2734375 C-3.8125 40.25 -3.8125 40.25 -1.8125 40.25 C-2.4725 36.95 -3.1325 33.65 -3.8125 30.25 C-5.1325 32.89 -6.4525 35.53 -7.8125 38.25 C-8.1425 36.93 -8.4725 35.61 -8.8125 34.25 C-9.4725 34.91 -10.1325 35.57 -10.8125 36.25 C-12.14583333 36.91666667 -13.47916667 37.58333333 -14.8125 38.25 C-15.4725 38.91 -16.1325 39.57 -16.8125 40.25 C-17.4725 39.92 -18.1325 39.59 -18.8125 39.25 C-18.29105072 32.89700956 -16.13325837 27.73210584 -13.5625 21.9375 C-13.17964844 21.05126953 -12.79679687 20.16503906 -12.40234375 19.25195312 C-4.16661112 0.37036543 -4.16661112 0.37036543 0 0 Z " fill="#2B293C" transform="translate(131.8125,83.75)"/>
<path d="M0 0 C3.1875 0.4375 3.1875 0.4375 5.9375 2.4375 C8.61523668 6.00781557 9.45065547 9.13924024 10.1875 13.4375 C10.36023438 14.25605469 10.53296875 15.07460937 10.7109375 15.91796875 C12.17567698 23.44333317 12.56872159 30.93919756 12.84594727 38.58300781 C12.89319946 39.8258252 12.89319946 39.8258252 12.94140625 41.09375 C12.96533447 41.83431641 12.9892627 42.57488281 13.01391602 43.33789062 C13.18975017 45.46471728 13.61226158 47.38576802 14.1875 49.4375 C14.66058594 48.47972656 15.13367188 47.52195313 15.62109375 46.53515625 C19.35022813 39.01201639 23.13009001 31.51426323 27 24.0625 C27.55868774 22.96627319 27.55868774 22.96627319 28.12866211 21.84790039 C29.88950992 18.4860644 30.97452035 16.57948643 34.1875 14.4375 C40.34548691 14.6574281 40.34548691 14.6574281 42.88671875 17.01171875 C44.68508164 20.36542251 44.58876557 23.41739347 44.5 27.125 C44.48743164 28.2694458 44.48743164 28.2694458 44.47460938 29.43701172 C44.25693752 40.4620911 43.1904149 51.46144996 42.1875 62.4375 C44.1675 62.1075 46.1475 61.7775 48.1875 61.4375 C47.89930351 64.89585793 47.39784962 66.22130733 44.9375 68.75 C41.93223709 70.59413861 40.62327059 71.25123514 37.1875 70.4375 C34.2572973 66.59119405 33.78468981 63.59441358 33.67578125 58.82421875 C33.64033203 57.57705078 33.60488281 56.32988281 33.56835938 55.04492188 C33.53452148 53.10456055 33.53452148 53.10456055 33.5 51.125 C33.46583984 49.81208984 33.43167969 48.49917969 33.39648438 47.14648438 C33.31410728 43.91024149 33.24491984 40.67426615 33.1875 37.4375 C32.78958252 38.3253418 32.39166504 39.21318359 31.98168945 40.12792969 C30.49464564 43.43645264 28.99028838 46.73686052 27.48071289 50.03515625 C26.83114188 51.46075198 26.18621607 52.88847419 25.54614258 54.31835938 C24.62248643 56.37954077 23.68210634 58.43236494 22.73828125 60.484375 C22.45785477 61.11994324 22.17742828 61.75551147 21.88850403 62.41033936 C19.97863926 66.50636695 17.98283908 68.97756495 14.1875 71.4375 C11.125 72 11.125 72 8.1875 71.4375 C4.18195008 67.43195008 2.04976333 63.3891727 1.625 57.76953125 C1.55023438 56.87556641 1.47546875 55.98160156 1.3984375 55.06054688 C1.32882813 54.13306641 1.25921875 53.20558594 1.1875 52.25 C0.66726989 45.46292379 -0.18999187 39.0559811 -1.8125 32.4375 C-2.01818604 33.25089844 -2.22387207 34.06429687 -2.43579102 34.90234375 C-8.01810547 56.91588432 -13.99847064 78.76804017 -20.8125 100.4375 C-22.1325 100.4375 -23.4525 100.4375 -24.8125 100.4375 C-24.93498264 95.39448139 -24.5065621 90.64250075 -23.640625 85.6875 C-23.457062 84.59674164 -23.457062 84.59674164 -23.26979065 83.48394775 C-22.87290447 81.13415166 -22.46787825 78.78584457 -22.0625 76.4375 C-21.78560482 74.80964622 -21.50915918 73.18171591 -21.2331543 71.55371094 C-20.55522098 67.56390053 -19.87048755 63.57529781 -19.18280029 59.5871582 C-18.66199622 56.56379913 -18.1457919 53.53965609 -17.62890625 50.515625 C-16.84534336 45.95082521 -16.04817502 41.38864014 -15.23730469 36.82861328 C-14.95717591 35.25184248 -14.67913324 33.67469943 -14.40332031 32.09716797 C-9.02553786 1.40397256 -9.02553786 1.40397256 0 0 Z " fill="#2A273A" transform="translate(248.8125,114.5625)"/>
<path d="M0 0 C2.625 0.375 2.625 0.375 5 1 C5.12375 1.804375 5.2475 2.60875 5.375 3.4375 C5.58125 4.283125 5.7875 5.12875 6 6 C6.66 6.33 7.32 6.66 8 7 C7.80664062 7.70125 7.61328125 8.4025 7.4140625 9.125 C7.15367187 10.07375 6.89328125 11.0225 6.625 12 C6.24214844 13.3921875 6.24214844 13.3921875 5.8515625 14.8125 C4.02220986 21.6599851 2.45783017 28.48341221 1.16015625 35.44921875 C0.99253281 36.34252396 0.82490936 37.23582916 0.65220642 38.15620422 C0.29884117 40.04440833 -0.05322244 41.93285645 -0.40405273 43.8215332 C-0.92777321 46.63524245 -1.45874833 49.44751441 -1.99023438 52.25976562 C-4.33821593 64.79786345 -6.29618239 77.35869417 -8 90 C-8.66 90 -9.32 90 -10 90 C-9.95875 89.21625 -9.9175 88.4325 -9.875 87.625 C-9.71271266 84.83883881 -9.71271266 84.83883881 -12 83 C-13.99956611 82.95834237 -16.00043389 82.95834237 -18 83 C-18.66 82.67 -19.32 82.34 -20 82 C-20.31241455 79.28553021 -20.51336592 76.66090639 -20.625 73.9375 C-20.66367188 73.17888672 -20.70234375 72.42027344 -20.7421875 71.63867188 C-20.83673562 69.75952805 -20.91946756 67.87979664 -21 66 C-21.99 66 -22.98 66 -24 66 C-24 65.01 -24 64.02 -24 63 C-24.66 62.67 -25.32 62.34 -26 62 C-25.3960294 54.39802336 -23.69655826 47.34548763 -21.6875 40 C-21.39166016 38.8759375 -21.09582031 37.751875 -20.79101562 36.59375 C-16.00753997 18.90625472 -16.00753997 18.90625472 -10.1796875 15.15234375 C-8.7590089 14.38706108 -7.32347055 13.64877936 -5.875 12.9375 C-4.78251953 12.35452148 -4.78251953 12.35452148 -3.66796875 11.75976562 C1.5984623 9 1.5984623 9 4 9 C4 7.68 4 6.36 4 5 C2.68 5.33 1.36 5.66 0 6 C-0.66 4.68 -1.32 3.36 -2 2 C-1.34 1.34 -0.68 0.68 0 0 Z " fill="#EEEEF1" transform="translate(234,113)"/>
<path d="M0 0 C-0.66 1.98 -1.32 3.96 -2 6 C-2.66 6 -3.32 6 -4 6 C-4 6.66 -4 7.32 -4 8 C-3.34 8.33 -2.68 8.66 -2 9 C-4.28560597 13.72970287 -7.48632267 15.94845415 -11.875 18.5625 C-16.14149455 21.16281615 -20.15740674 23.77835812 -24 27 C-22.29613286 33.07002668 -19.88106817 38.45042276 -16.9375 44 C-16.40866211 45.0065564 -16.40866211 45.0065564 -15.86914062 46.03344727 C-14.08764414 49.63475064 -14.08764414 49.63475064 -11 52 C-10.90203125 51.4325708 -10.8040625 50.8651416 -10.703125 50.28051758 C-9.33798497 42.90390695 -7.24430195 35.83917958 -5 28.6875 C-4.64421875 27.53443359 -4.2884375 26.38136719 -3.921875 25.19335938 C-0.54590139 14.32851893 -0.54590139 14.32851893 1 11 C3.125 10.1875 3.125 10.1875 5 10 C5 10.66 5 11.32 5 12 C6.98 12.66 8.96 13.32 11 14 C9.72062008 20.74582142 7.65057519 26.9521589 5.2890625 33.39453125 C3.72867273 37.75889415 2.38301657 42.16963698 1.04296875 46.60546875 C-0.15452056 50.50291523 -1.40801745 54.37882782 -2.6875 58.25 C-3.00944336 59.23504517 -3.00944336 59.23504517 -3.33789062 60.23999023 C-4.88160059 64.88160059 -4.88160059 64.88160059 -6 66 C-8.109375 66.37890625 -8.109375 66.37890625 -10.75 66.5625 C-11.61109375 66.64628906 -12.4721875 66.73007813 -13.359375 66.81640625 C-17.69123229 65.47711901 -18.98970269 61.79065866 -21 58 C-21.59345215 56.91759033 -22.1869043 55.83518066 -22.79833984 54.7199707 C-24.49452709 51.60919448 -26.14765293 48.47756503 -27.78588867 45.3359375 C-28.47369946 44.02214529 -29.16712578 42.71127861 -29.8659668 41.40332031 C-30.88762132 39.49114544 -31.89274019 37.57107823 -32.89453125 35.6484375 C-33.49112549 34.51583496 -34.08771973 33.38323242 -34.70239258 32.21630859 C-36.06694191 28.83407475 -36.38856643 26.60751196 -36 23 C-34.4453125 21.0859375 -34.4453125 21.0859375 -32.125 19.375 C-31.22652344 18.70855469 -30.32804687 18.04210937 -29.40234375 17.35546875 C-22.3614681 12.43312492 -15.21821121 7.65791334 -8 3 C-7.05769531 2.38769531 -6.11539063 1.77539062 -5.14453125 1.14453125 C-3 0 -3 0 0 0 Z " fill="#262433" transform="translate(45,166)"/>
<path d="M0 0 C0.66 0.66 1.32 1.32 2 2 C1.64487065 7.09464949 0.25535892 11.6847777 -1.4765625 16.453125 C-1.72281372 17.14738586 -1.96906494 17.84164673 -2.22277832 18.5569458 C-3.01692974 20.79037982 -3.82055916 23.02025364 -4.625 25.25 C-5.1734229 26.78305702 -5.72143587 28.31626076 -6.26904297 29.84960938 C-7.60028582 33.5714466 -8.93991626 37.29019909 -10.28222656 41.00805664 C-11.28826239 43.79997716 -12.28416807 46.59549644 -13.28125 49.390625 C-13.89486089 51.0941006 -14.50934239 52.79726304 -15.125 54.5 C-15.39521973 55.25700195 -15.66543945 56.01400391 -15.94384766 56.79394531 C-17.01436136 59.71403403 -17.77310135 61.77310135 -20 64 C-21.98821313 64.39764263 -23.98944339 64.73775349 -26 65 C-26.33 65.99 -26.66 66.98 -27 68 C-29.0625 68.6875 -29.0625 68.6875 -31 69 C-32.41223383 64.4869513 -31.08384673 61.05537828 -29.6875 56.6875 C-29.42694824 55.84606445 -29.16639648 55.00462891 -28.89794922 54.13769531 C-27.94655884 51.0870004 -26.97498379 48.04323824 -26 45 C-25.79622742 44.3626593 -25.59245483 43.7253186 -25.38250732 43.06866455 C-22.28164069 33.37044385 -19.15071433 23.68213578 -16 14 C-17.64162109 14.73669922 -17.64162109 14.73669922 -19.31640625 15.48828125 C-22.65605663 16.85884827 -24.48460748 17.31958114 -28 17 C-27.22106071 11.74215978 -23.83103875 8.47770754 -19.75 5.375 C-13.42724432 1.10141034 -7.62500724 -0.65732821 0 0 Z M-29 64 C-29.66 65.32 -30.32 66.64 -31 68 C-30.01 67.34 -29.02 66.68 -28 66 C-28.33 65.34 -28.66 64.68 -29 64 Z " fill="#282538" transform="translate(88,80)"/>
<path d="M0 0 C1.39973958 1.33463542 2.79947917 2.66927083 4.19921875 4.00390625 C6.73012356 5.40386444 8.29727906 4.7689172 11 4 C10.75765625 4.71800781 10.5153125 5.43601562 10.265625 6.17578125 C9.93046875 7.21089844 9.5953125 8.24601562 9.25 9.3125 C8.67765625 11.07980469 8.67765625 11.07980469 8.09375 12.8828125 C7.2278741 15.83637913 6.74640533 18.68448684 6.40625 21.7421875 C4.75840031 35.08236394 4.75840031 35.08236394 -0.4609375 39.19140625 C-3.83951037 41.42089039 -7.39604307 43.24419089 -11.03808594 45.00195312 C-13.80418942 46.40909984 -16.25238502 48.16593049 -18.75 50 C-25.625 55 -25.625 55 -30 55 C-28.85859008 45.12754537 -22.5983141 35.32899989 -16 28 C-15.67 28 -15.34 28 -15 28 C-14.855625 29.134375 -14.71125 30.26875 -14.5625 31.4375 C-14.38828522 34.80777201 -14.38828522 34.80777201 -13 36 C-11.00041636 36.04080783 -8.99954746 36.04254356 -7 36 C-4.51739368 30.31069384 -2.89388269 25.2442106 -4 19 C-5.79393668 16.12970131 -6.98263276 14.50868362 -10 13 C-13.44236057 12.7006643 -15.33213909 12.5547594 -18.25 14.5 C-18.8275 14.995 -19.405 15.49 -20 16 C-20.66 16 -21.32 16 -22 16 C-22.35771484 16.77537109 -22.35771484 16.77537109 -22.72265625 17.56640625 C-24.42979175 20.81883873 -26.4327696 23.86401187 -28.4375 26.9375 C-31.02688545 30.92084499 -33.58472331 34.9072321 -36 39 C-37.67029674 35.99346588 -38.54505273 33.41210451 -39 30 C-39.11214844 29.29230469 -39.22429687 28.58460938 -39.33984375 27.85546875 C-39.57553474 25.36210614 -39.54566077 23.44672381 -39 21 C-37.59936523 19.67993164 -37.59936523 19.67993164 -35.68359375 18.59765625 C-34.95648193 18.18080566 -34.22937012 17.76395508 -33.48022461 17.33447266 C-32.25251343 16.67390869 -32.25251343 16.67390869 -31 16 C-30.1138501 15.51966309 -29.2277002 15.03932617 -28.31469727 14.54443359 C-25.38849235 12.98456078 -22.44733419 11.45704 -19.5 9.9375 C-18.50613281 9.42123047 -17.51226562 8.90496094 -16.48828125 8.37304688 C-11.01496391 5.53516437 -5.52224538 2.74140038 0 0 Z " fill="#F4F4F5" transform="translate(180,106)"/>
<path d="M0 0 C2.00720923 0.28674418 4.0085944 0.61866701 6 1 C6.32307697 8.39230887 5.1453644 14.77729918 3.375 21.9375 C2.8249908 24.22903952 2.27552866 26.52071039 1.7265625 28.8125 C1.44200195 29.988125 1.15744141 31.16375 0.86425781 32.375 C-0.00845769 36.03547451 -0.84248036 39.70273252 -1.6640625 43.375 C-1.93009277 44.55843994 -2.19612305 45.74187988 -2.47021484 46.96118164 C-2.98214173 49.24337541 -3.49040043 51.52639573 -3.99462891 53.81030273 C-4.22843262 54.84098877 -4.46223633 55.8716748 -4.703125 56.93359375 C-4.90583008 57.84165771 -5.10853516 58.74972168 -5.31738281 59.68530273 C-6 62 -6 62 -8 65 C-9.32 64.67 -10.64 64.34 -12 64 C-12.71048495 44.63270649 -12.89080432 17.19071133 -1 1 C-0.67 0.67 -0.34 0.34 0 0 Z " fill="#2C293C" transform="translate(226,131)"/>
<path d="M0 0 C0.33 0 0.66 0 1 0 C1.495 5.94 1.495 5.94 2 12 C-5.75 17 -5.75 17 -8 17 C-8 17.66 -8 18.32 -8 19 C-7.38511719 18.9278125 -6.77023438 18.855625 -6.13671875 18.78125 C-5.32847656 18.6884375 -4.52023438 18.595625 -3.6875 18.5 C-2.88699219 18.4071875 -2.08648437 18.314375 -1.26171875 18.21875 C1 18 1 18 4 18 C6.1875 20 6.1875 20 8 22 C7.34 23.98 6.68 25.96 6 28 C4.5393715 25.35261084 4 24.10551666 4 21 C3.08476562 21.5053125 2.16953125 22.010625 1.2265625 22.53125 C0.02616155 23.18771927 -1.17436587 23.8439573 -2.375 24.5 C-2.97828125 24.83386719 -3.5815625 25.16773438 -4.203125 25.51171875 C-8.7734375 28 -8.7734375 28 -11 28 C-11.19335938 28.84304687 -11.38671875 29.68609375 -11.5859375 30.5546875 C-11.84632812 31.65039062 -12.10671875 32.74609375 -12.375 33.875 C-12.75785156 35.51082031 -12.75785156 35.51082031 -13.1484375 37.1796875 C-14 40 -14 40 -16 42 C-18 41.66666667 -20 41.33333333 -22 41 C-22.66 41.66 -23.32 42.32 -24 43 C-25.31747324 43.69748583 -26.64914193 44.36959957 -28 45 C-29.32 43.68 -30.64 42.36 -32 41 C-28.25 37.125 -28.25 37.125 -26 36 C-26.66 33.03 -27.32 30.06 -28 27 C-23.375 24 -23.375 24 -20 24 C-19.87882812 23.41992188 -19.75765625 22.83984375 -19.6328125 22.2421875 C-18.66264526 17.71971558 -17.56602217 13.36249034 -16 9 C-15.401875 9.226875 -14.80375 9.45375 -14.1875 9.6875 C-13.465625 9.790625 -12.74375 9.89375 -12 10 C-10.22809091 8.64555699 -10.22809091 8.64555699 -9 7 C-8.67 7.33 -8.34 7.66 -8 8 C-7.67 7.34 -7.34 6.68 -7 6 C-6.34 6 -5.68 6 -5 6 C-4.67 5.34 -4.34 4.68 -4 4 C-4 5.65 -4 7.3 -4 9 C-2.68 6.03 -1.36 3.06 0 0 Z " fill="#2C2A3F" transform="translate(128,112)"/>
<path d="M0 0 C1.10435651 3.29396463 0.8970959 5.13587841 -0.2578125 8.38671875 C-0.55163818 9.23532471 -0.84546387 10.08393066 -1.14819336 10.95825195 C-1.63171265 12.30922974 -1.63171265 12.30922974 -2.125 13.6875 C-2.77724407 15.56944636 -3.42694708 17.45227516 -4.07421875 19.3359375 C-4.3995459 20.28049805 -4.72487305 21.22505859 -5.06005859 22.19824219 C-6.46033918 26.37216946 -7.71467949 30.58369304 -8.9375 34.8125 C-9.14842285 35.54106201 -9.3593457 36.26962402 -9.57666016 37.02026367 C-10.05435865 38.67924286 -10.52773778 40.33946509 -11 42 C-14.58689507 40.80436831 -14.75420321 40.15578681 -16.4453125 36.921875 C-16.88230469 36.09042969 -17.31929687 35.25898438 -17.76953125 34.40234375 C-18.21683594 33.52707031 -18.66414063 32.65179688 -19.125 31.75 C-19.58003906 30.89019531 -20.03507812 30.03039062 -20.50390625 29.14453125 C-22.62257615 25.06436281 -24.24842799 21.56996136 -25 17 C-17.21964622 10.28143568 -8.88126938 5.11561116 0 0 Z " fill="#F6F5F5" transform="translate(45,176)"/>
<path d="M0 0 C1.79296875 1.3203125 1.79296875 1.3203125 3 3 C3.0625 6.375 3.0625 6.375 2 10 C-2.76536267 14.87366637 -6.88694554 17.06494842 -13.625 17.25 C-17.15024391 17.2740631 -17.90231277 17.06512482 -21 15 C-21.61901381 11.72806986 -21.20624207 10.32998731 -19.4375 7.5 C-13.61299811 1.5261519 -8.71795834 -1.82894231 0 0 Z " fill="#F4F4F5" transform="translate(90,162)"/>
<path d="M0 0 C2.91817239 1.84341426 5.43102312 3.86204624 7 7 C7.6861122 13.35973234 6.58895261 18.20074615 4 24 C3 25 3 25 0.0625 25.1875 C-3 25 -3 25 -5 23 C-6.25107296 15.94849785 -6.25107296 15.94849785 -5.4375 12.875 C-4.75390138 9.94529162 -5.9434598 7.73457462 -7 5 C-6.01 4.67 -5.02 4.34 -4 4 C-3.67 3.34 -3.34 2.68 -3 2 C-3.66 2 -4.32 2 -5 2 C-5 2.66 -5 3.32 -5 4 C-6.65 4.66 -8.3 5.32 -10 6 C-10.66 5.34 -11.32 4.68 -12 4 C-7.89154663 0.86974981 -5.21779453 -0.97833647 0 0 Z " fill="#29263E" transform="translate(170,118)"/>
<path d="M0 0 C0.66 0.33 1.32 0.66 2 1 C1.67 1.99 1.34 2.98 1 4 C-0.175625 4.12375 -0.175625 4.12375 -1.375 4.25 C-4.14749104 4.72806339 -4.14749104 4.72806339 -5.3125 7.0625 C-5.539375 7.701875 -5.76625 8.34125 -6 9 C-6.66 9 -7.32 9 -8 9 C-8.35771484 9.77537109 -8.35771484 9.77537109 -8.72265625 10.56640625 C-10.42979175 13.81883873 -12.4327696 16.86401187 -14.4375 19.9375 C-17.02688545 23.92084499 -19.58472331 27.9072321 -22 32 C-23.67029674 28.99346588 -24.54505273 26.41210451 -25 23 C-25.11214844 22.29230469 -25.22429687 21.58460938 -25.33984375 20.85546875 C-25.57611718 18.35594461 -25.55669164 16.45129887 -25 14 C-23.50708008 12.63818359 -23.50708008 12.63818359 -21.51953125 11.5234375 C-20.79338623 11.10739258 -20.06724121 10.69134766 -19.3190918 10.26269531 C-18.5537915 9.84600586 -17.78849121 9.42931641 -17 9 C-16.2675708 8.58588867 -15.5351416 8.17177734 -14.78051758 7.74511719 C-12.57581773 6.51089441 -10.35436922 5.31399692 -8.125 4.125 C-7.36703125 3.70992188 -6.6090625 3.29484375 -5.828125 2.8671875 C-5.10367188 2.48046875 -4.37921875 2.09375 -3.6328125 1.6953125 C-2.98199707 1.34484863 -2.33118164 0.99438477 -1.66064453 0.63330078 C-1.11263184 0.42431152 -0.56461914 0.21532227 0 0 Z " fill="#EEEFF1" transform="translate(166,113)"/>
<path d="M0 0 C3.4375 0.9375 3.4375 0.9375 5.375 2.0625 C7.13047303 5.16039358 6.92473574 7.46594534 6.4375 10.9375 C4.01890437 13.63250656 2.42986035 14.74386871 -1.125 15.4375 C-4.4874123 14.7477744 -5.6111167 13.75616476 -7.5625 10.9375 C-8.12895882 6.97228823 -8.13840314 4.85894502 -6 1.4375 C-3.5625 -0.0625 -3.5625 -0.0625 0 0 Z " fill="#424242" transform="translate(304.5625,114.0625)"/>
<path d="M0 0 C0.33 0 0.66 0 1 0 C1.33 1.98 1.66 3.96 2 6 C2.99 6 3.98 6 5 6 C5.33 6.99 5.66 7.98 6 9 C6.66 9 7.32 9 8 9 C7.43408715 15.11185874 6.56816298 21.36979654 4 27 C3.01 27.33 2.02 27.66 1 28 C0.34 27.67 -0.32 27.34 -1 27 C-1.09471858 17.9280648 -1.14516104 9.01814321 0 0 Z " fill="#242233" transform="translate(215,168)"/>
<path d="M0 0 C0.66 0.66 1.32 1.32 2 2 C2.99 1.34 3.98 0.68 5 0 C5.99 0.33 6.98 0.66 8 1 C8.99 1 9.98 1 11 1 C10.71715982 2.77226453 10.42339502 4.542788 10.125 6.3125 C9.96257812 7.29863281 9.80015625 8.28476563 9.6328125 9.30078125 C9 12 9 12 7 15 C5.5 13.75 5.5 13.75 4 12 C4 10.68 4 9.36 4 8 C3.34 7.67 2.68 7.34 2 7 C0.7018576 8.1490712 0.7018576 8.1490712 0 11 C-0.66 10.67 -1.32 10.34 -2 10 C-1.85950482 8.52031676 -1.71245174 7.04125484 -1.5625 5.5625 C-1.48128906 4.73878906 -1.40007812 3.91507813 -1.31640625 3.06640625 C-1 1 -1 1 0 0 Z " fill="#2A263B" transform="translate(235,148)"/>
<path d="M0 0 C0.99 0.33 1.98 0.66 3 1 C2.67 1.66 2.34 2.32 2 3 C2.66 3.66 3.32 4.32 4 5 C3.67 5.33 3.34 5.66 3 6 C3.66 8.31 4.32 10.62 5 13 C3.02 13.99 3.02 13.99 1 15 C0.34 14.34 -0.32 13.68 -1 13 C-2.32 13 -3.64 13 -5 13 C-6.462958 10.074084 -6.44523109 8.24382653 -6 5 C-4.17744623 2.72757536 -2.50968411 1.62391325 0 0 Z " fill="#1F1C2A" transform="translate(15,184)"/>
<path d="M0 0 C0.99 0.66 1.98 1.32 3 2 C3.1875 4.625 3.1875 4.625 3 7 C2.01 7.33 1.02 7.66 0 8 C-2.03960471 10.9025144 -3.35341074 13.50841798 -4 17 C-4.99 17 -5.98 17 -7 17 C-7 15.35 -7 13.7 -7 12 C-8.32 12.33 -9.64 12.66 -11 13 C-11 12.34 -11 11.68 -11 11 C-11.99 11.33 -12.98 11.66 -14 12 C-14.33 11.01 -14.66 10.02 -15 9 C-14.34 8.01 -13.68 7.02 -13 6 C-12.34 6 -11.68 6 -11 6 C-10.67 6.33 -10.34 6.66 -10 7 C-9.401875 6.773125 -8.80375 6.54625 -8.1875 6.3125 C-7.1046875 6.1578125 -7.1046875 6.1578125 -6 6 C-3.75 7.9375 -3.75 7.9375 -2 10 C-1.34 6.7 -0.68 3.4 0 0 Z " fill="#282535" transform="translate(36,208)"/>
<path d="M0 0 C0.66 0.33 1.32 0.66 2 1 C1 4 1 4 -1 7 C-1.804375 7.12375 -2.60875 7.2475 -3.4375 7.375 C-6.20440351 7.75795016 -6.20440351 7.75795016 -7.6875 10.3125 C-8.120625 11.199375 -8.55375 12.08625 -9 13 C-9.391875 13.763125 -9.78375 14.52625 -10.1875 15.3125 C-10.5896875 16.1478125 -10.5896875 16.1478125 -11 17 C-12.32 17 -13.64 17 -15 17 C-14.36785984 11.76377232 -13.41024786 8.13685253 -9.19921875 4.7421875 C-6.17446259 2.95269104 -3.26566175 1.30156591 0 0 Z " fill="#E4E3E8" transform="translate(231,125)"/>
<path d="M0 0 C0.33 0 0.66 0 1 0 C1 3.96 1 7.92 1 12 C2.65 11.67 4.3 11.34 6 11 C5.94011859 13.12579013 5.85137256 15.25078413 5.75 17.375 C5.70359375 18.55835938 5.6571875 19.74171875 5.609375 20.9609375 C5 24 5 24 2.953125 25.4140625 C1.98632812 25.70410156 1.98632812 25.70410156 1 26 C-0.01973129 22.94080612 -0.11533602 20.87581975 -0.09765625 17.67578125 C-0.09443359 16.64775391 -0.09121094 15.61972656 -0.08789062 14.56054688 C-0.07951172 13.48869141 -0.07113281 12.41683594 -0.0625 11.3125 C-0.05798828 10.22904297 -0.05347656 9.14558594 -0.04882812 8.02929688 C-0.03703743 5.35280915 -0.02058063 2.67643223 0 0 Z " fill="#3F3D4B" transform="translate(199,181)"/>
<path d="M0 0 C0.1953125 6.0546875 0.1953125 6.0546875 0 8 C-0.66 8.66 -1.32 9.32 -2 10 C-2 8.35 -2 6.7 -2 5 C-2.99 5.33 -3.98 5.66 -5 6 C-6.22969878 9.51190809 -6.22969878 9.51190809 -7 13 C-9.64 13 -12.28 13 -15 13 C-15 12.01 -15 11.02 -15 10 C-13.07333096 8.32079304 -11.19964822 6.84671842 -9.125 5.375 C-8.56941406 4.96765625 -8.01382813 4.5603125 -7.44140625 4.140625 C-1.75147454 0 -1.75147454 0 0 0 Z " fill="#E9E8ED" transform="translate(181,154)"/>
<path d="M0 0 C0.66 0 1.32 0 2 0 C2 0.66 2 1.32 2 2 C2.99 2 3.98 2 5 2 C5.33 2.99 5.66 3.98 6 5 C8.50447516 6.21869929 8.50447516 6.21869929 11 7 C11 7.66 11 8.32 11 9 C11.66 9.33 12.32 9.66 13 10 C11 10 9 10 7 10 C7.33 10.99 7.66 11.98 8 13 C8 14.32 8 15.64 8 17 C5 16 5 16 3 13 C3.33 12.67 3.66 12.34 4 12 C3.34 11.67 2.68 11.34 2 11 C1.3671875 8.49609375 1.3671875 8.49609375 0.875 5.4375 C0.70742187 4.42558594 0.53984375 3.41367188 0.3671875 2.37109375 C0.24601562 1.58863281 0.12484375 0.80617187 0 0 Z " fill="#222031" transform="translate(64,172)"/>
<path d="M0 0 C0.33 0 0.66 0 1 0 C1.33 2.31 1.66 4.62 2 7 C2.66 7 3.32 7 4 7 C4.66 6.01 5.32 5.02 6 4 C6.66 4 7.32 4 8 4 C7.71715982 5.77226453 7.42339502 7.542788 7.125 9.3125 C6.96257812 10.29863281 6.80015625 11.28476563 6.6328125 12.30078125 C6 15 6 15 4 18 C2.68 17.67 1.36 17.34 0 17 C0 11.39 0 5.78 0 0 Z " fill="#393744" transform="translate(214,178)"/>
<path d="M0 0 C0.13277344 0.94101563 0.26554688 1.88203125 0.40234375 2.8515625 C0.57894531 4.09679687 0.75554687 5.34203125 0.9375 6.625 C1.11152344 7.85476562 1.28554687 9.08453125 1.46484375 10.3515625 C1.93774301 13.57556184 2.45151002 16.78812176 3 20 C2.34 20.33 1.68 20.66 1 21 C0 19 -1 17 -2 15 C-3.32 15.33 -4.64 15.66 -6 16 C-5.67 14.02 -5.34 12.04 -5 10 C-4.34 10 -3.68 10 -3 10 C-3 7.03 -3 4.06 -3 1 C-1 0 -1 0 0 0 Z " fill="#363547" transform="translate(141,127)"/>
<path d="M0 0 C0.33 0 0.66 0 1 0 C1.50831867 2.83206118 2.00681505 5.66529734 2.5 8.5 C2.64308594 9.29148438 2.78617188 10.08296875 2.93359375 10.8984375 C3.81386457 16.0123918 4.1428131 20.81112402 4 26 C1.65941363 23.87219421 0.29299694 21.88437779 -1 19 C-0.34 18.01 0.32 17.02 1 16 C0.67 15.01 0.34 14.02 0 13 C-0.99 13 -1.98 13 -3 13 C-2.01 8.71 -1.02 4.42 0 0 Z " fill="#D9D9DB" transform="translate(247,144)"/>
<path d="M0 0 C2.91817239 1.84341426 5.43102312 3.86204624 7 7 C7.06950541 8.54023996 7.08452357 10.08334988 7.0625 11.625 C7.05347656 12.44226563 7.04445312 13.25953125 7.03515625 14.1015625 C7.02355469 14.72804687 7.01195312 15.35453125 7 16 C6.67 16 6.34 16 6 16 C6 13.36 6 10.72 6 8 C5.1646875 7.8453125 5.1646875 7.8453125 4.3125 7.6875 C1.5230899 6.85821592 -0.6139064 5.65700944 -3 4 C-3 3.34 -3 2.68 -3 2 C-3.66 2 -4.32 2 -5 2 C-5 2.66 -5 3.32 -5 4 C-6.65 4.66 -8.3 5.32 -10 6 C-10.66 5.34 -11.32 4.68 -12 4 C-7.89154663 0.86974981 -5.21779453 -0.97833647 0 0 Z " fill="#3A3746" transform="translate(170,118)"/>
<path d="M0 0 C2.4375 0.75 2.4375 0.75 5 2 C5.66015625 4.078125 5.66015625 4.078125 6 6 C4.73461631 6.84158536 3.46246221 7.67299748 2.1875 8.5 C1.47980469 8.9640625 0.77210938 9.428125 0.04296875 9.90625 C-2 11 -2 11 -5 11 C-4.5020163 7.26512223 -4.12508244 5.18762365 -2 2 C-1.34 2 -0.68 2 0 2 C0 1.34 0 0.68 0 0 Z " fill="#EDEEF0" transform="translate(155,150)"/>
<path d="M0 0 C2 3 2 3 2 5 C2.99 5.33 3.98 5.66 5 6 C5.33 5.34 5.66 4.68 6 4 C6.99 4.33 7.98 4.66 9 5 C8.75 8.375 8.75 8.375 8 12 C5.9375 13.4375 5.9375 13.4375 4 14 C4 12.68 4 11.36 4 10 C2.35 10.33 0.7 10.66 -1 11 C-2.41687119 6.74938644 -1.19320039 4.28148375 0 0 Z " fill="#2A2838" transform="translate(39,198)"/>
<path d="M0 0 C-0.515625 0.7425 -1.03125 1.485 -1.5625 2.25 C-3.2666239 4.81827346 -3.2666239 4.81827346 -2.58984375 7.171875 C-2.29787109 8.07679688 -2.29787109 8.07679688 -2 9 C-3.43739513 9.02712066 -4.87493863 9.04645067 -6.3125 9.0625 C-7.51326172 9.07990234 -7.51326172 9.07990234 -8.73828125 9.09765625 C-11 9 -11 9 -14 8 C-14.33 8.66 -14.66 9.32 -15 10 C-15 9.01 -15 8.02 -15 7 C-14.360625 6.855625 -13.72125 6.71125 -13.0625 6.5625 C-11.02454854 6.18992819 -11.02454854 6.18992819 -10 5 C-9.71125 4.175 -9.4225 3.35 -9.125 2.5 C-8.75375 1.675 -8.3825 0.85 -8 0 C-4.71023192 -1.09658936 -3.28696233 -0.79953138 0 0 Z " fill="#242237" transform="translate(157,162)"/>
<path d="M0 0 C0.33 0 0.66 0 1 0 C1 1.98 1 3.96 1 6 C2.98 5.67 4.96 5.34 7 5 C6.625 7.4375 6.625 7.4375 6 10 C5.01 10.495 5.01 10.495 4 11 C4.33 11.99 4.66 12.98 5 14 C2.92446352 14.5534764 1.15634036 15 -1 15 C-1 13.68 -1 12.36 -1 11 C-1.99 10.67 -2.98 10.34 -4 10 C-3.525625 9.649375 -3.05125 9.29875 -2.5625 8.9375 C-0.32126175 6.15836457 -0.32882342 3.4855283 0 0 Z " fill="#333146" transform="translate(138,112)"/>
<path d="M0 0 C-0.18359375 1.828125 -0.18359375 1.828125 -1 4 C-3.28515625 5.484375 -3.28515625 5.484375 -6.0625 6.75 C-7.44115234 7.39195313 -7.44115234 7.39195313 -8.84765625 8.046875 C-9.55792969 8.36140625 -10.26820313 8.6759375 -11 9 C-12 6 -12 6 -11.25 3.375 C-8.87434565 -1.13874326 -4.57259112 -0.0862753 0 0 Z " fill="#312E3F" transform="translate(181,103)"/>
<path d="M0 0 C0 0.66 0 1.32 0 2 C1.32 1.67 2.64 1.34 4 1 C3.67 2.65 3.34 4.3 3 6 C2.67 6 2.34 6 2 6 C1.67 7.98 1.34 9.96 1 12 C0.34 12 -0.32 12 -1 12 C-1.33 13.98 -1.66 15.96 -2 18 C-2.91250697 14.92028898 -3.08433229 12.20462683 -3 9 C-3 8.34 -3 7.68 -3 7 C-3.99 7 -4.98 7 -6 7 C-6 4 -6 4 -4.125 1.8125 C-2 0 -2 0 0 0 Z " fill="#242238" transform="translate(137,125)"/>
<path d="M0 0 C0.99 0.33 1.98 0.66 3 1 C3.33 2.65 3.66 4.3 4 6 C3.01 6.495 3.01 6.495 2 7 C2 8.32 2 9.64 2 11 C0.46875 12.484375 0.46875 12.484375 -1.5 13.75 C-2.47453125 14.39195312 -2.47453125 14.39195312 -3.46875 15.046875 C-3.9740625 15.36140625 -4.479375 15.6759375 -5 16 C-4.54762239 14.08191891 -4.08785537 12.16557967 -3.625 10.25 C-3.24214844 8.64898437 -3.24214844 8.64898437 -2.8515625 7.015625 C-2.12466459 4.44147278 -1.2973776 2.32399814 0 0 Z " fill="#F9F8FA" transform="translate(245,156)"/>
<path d="M0 0 C-0.46800711 4.05606165 -0.87953208 7.46588679 -3 11 C-4.32 10.67 -5.64 10.34 -7 10 C-8.125 6.25 -8.125 6.25 -7 4 C-8.32 3.67 -9.64 3.34 -11 3 C-9.54293274 2.49632243 -8.08429904 1.99717444 -6.625 1.5 C-5.81289062 1.2215625 -5.00078125 0.943125 -4.1640625 0.65625 C-2 0 -2 0 0 0 Z " fill="#EDEDEF" transform="translate(72,94)"/>
<path d="M0 0 C0.66 0.33 1.32 0.66 2 1 C2.625 3.5625 2.625 3.5625 3 6 C3.99 6.33 4.98 6.66 6 7 C5.67 8.32 5.34 9.64 5 11 C4.67 10.67 4.34 10.34 4 10 C3.67 10.66 3.34 11.32 3 12 C2.34 12 1.68 12 1 12 C1 11.01 1 10.02 1 9 C0.01 9.33 -0.98 9.66 -2 10 C-3 9 -3 9 -3.0625 6.4375 C-3.041875 5.633125 -3.02125 4.82875 -3 4 C-2.34 3.67 -1.68 3.34 -1 3 C-0.67 2.01 -0.34 1.02 0 0 Z " fill="#252236" transform="translate(236,154)"/>
<path d="M0 0 C2.625 0.375 2.625 0.375 5 1 C5.12375 1.804375 5.2475 2.60875 5.375 3.4375 C5.684375 4.7059375 5.684375 4.7059375 6 6 C6.66 6.33 7.32 6.66 8 7 C7.34 8.98 6.68 10.96 6 13 C3.69 12.67 1.38 12.34 -1 12 C0.375 10.5 0.375 10.5 2 9 C2.66 9 3.32 9 4 9 C4 7.68 4 6.36 4 5 C2.68 5.33 1.36 5.66 0 6 C-0.66 4.68 -1.32 3.36 -2 2 C-1.34 1.34 -0.68 0.68 0 0 Z " fill="#F6F7F3" transform="translate(234,113)"/>
<path d="M0 0 C1.65 0.33 3.3 0.66 5 1 C5 1.66 5 2.32 5 3 C5.99 3 6.98 3 8 3 C7.67 4.32 7.34 5.64 7 7 C3.625 7.625 3.625 7.625 0 8 C-2 6 -2 6 -2.125 3.375 C-2.08375 2.59125 -2.0425 1.8075 -2 1 C-1.67 1.66 -1.34 2.32 -1 3 C-0.67 2.01 -0.34 1.02 0 0 Z " fill="#272533" transform="translate(286,177)"/>
<path d="M0 0 C0.99 0.66 1.98 1.32 3 2 C3.43566323 4.83181098 3.39684676 6.36063578 1.875 8.8125 C-0.83445834 10.52849028 -2.86295684 10.333728 -6 10 C-6.66 9.34 -7.32 8.68 -8 8 C-8 7.01 -8 6.02 -8 5 C-7.13375 5.4640625 -7.13375 5.4640625 -6.25 5.9375 C-4.15705816 6.92583364 -2.25464725 7.5168613 0 8 C0 7.34 0 6.68 0 6 C-1.32 6 -2.64 6 -4 6 C-4 5.01 -4 4.02 -4 3 C-2.68 3 -1.36 3 0 3 C0 2.01 0 1.02 0 0 Z " fill="#E7E7E7" transform="translate(307,117)"/>
<path d="M0 0 C0 1.32 0 2.64 0 4 C-1.32 4 -2.64 4 -4 4 C-4 4.99 -4 5.98 -4 7 C-2.68 7 -1.36 7 0 7 C0 7.66 0 8.32 0 9 C-3.37462715 8.45276317 -5.08235 7.9451 -8 6 C-8.33 6.66 -8.66 7.32 -9 8 C-9.22223194 5.25913944 -9.34781139 3.56036279 -7.875 1.1875 C-5.22464043 -0.49106106 -3.06753576 -0.20450238 0 0 Z " fill="#939394" transform="translate(307,116)"/>
<path d="M0 0 C0.33 0 0.66 0 1 0 C1.33 3.96 1.66 7.92 2 12 C-1.465 13.485 -1.465 13.485 -5 15 C-4.43174347 9.45949887 -2.37113483 4.96284034 0 0 Z " fill="#E2E2E9" transform="translate(128,112)"/>
<path d="M0 0 C0.66 0 1.32 0 2 0 C2.2475 0.9075 2.495 1.815 2.75 2.75 C4.03981342 6.10351489 5.31971042 7.67708236 8 10 C7.67 10.66 7.34 11.32 7 12 C6.01 12 5.02 12 4 12 C3.67 11.34 3.34 10.68 3 10 C1.02 10.33 -0.96 10.66 -3 11 C-2.01 7.37 -1.02 3.74 0 0 Z " fill="#E0DFE4" transform="translate(57,177)"/>
<path d="M0 0 C0.66 1.32 1.32 2.64 2 4 C2.99 3.67 3.98 3.34 5 3 C6.5 4.125 6.5 4.125 8 6 C8.1875 9.1875 8.1875 9.1875 8 12 C5.6875 11.9375 5.6875 11.9375 3 11 C0.83114896 7.03623776 0 4.53922384 0 0 Z " fill="#2C2938" transform="translate(145,176)"/>
<path d="M0 0 C0.66 0 1.32 0 2 0 C1.649375 0.598125 1.29875 1.19625 0.9375 1.8125 C-0.33304698 4.10813214 -0.33304698 4.10813214 1 7 C1.375 9.375 1.375 9.375 1 12 C-1.5 14.8125 -1.5 14.8125 -4 17 C-4.91078492 14.44980222 -5.17843392 13.40445022 -4.0625 10.875 C-3.711875 10.25625 -3.36125 9.6375 -3 9 C-3 8.34 -3 7.68 -3 7 C-3.66 7 -4.32 7 -5 7 C-4.67 5.68 -4.34 4.36 -4 3 C-2.68 2.67 -1.36 2.34 0 2 C0 1.34 0 0.68 0 0 Z " fill="#232136" transform="translate(165,120)"/>
<path d="M0 0 C0.99 1.32 1.98 2.64 3 4 C2.071875 4.12375 2.071875 4.12375 1.125 4.25 C-1.16352629 4.79948083 -1.16352629 4.79948083 -2.125 6.9375 C-2.41375 7.618125 -2.7025 8.29875 -3 9 C-3.66 9.66 -4.32 10.32 -5 11 C-5 10.34 -5 9.68 -5 9 C-6.65 8.67 -8.3 8.34 -10 8 C-6.97727468 4.74475735 -3.74281699 2.38179263 0 0 Z " fill="#282630" transform="translate(35,170)"/>
<path d="M0 0 C0.66 1.32 1.32 2.64 2 4 C-0.31 4 -2.62 4 -5 4 C-5.33 5.32 -5.66 6.64 -6 8 C-7.65 8 -9.3 8 -11 8 C-8.71283018 1.49036283 -7.11151757 -0.47410117 0 0 Z " fill="#262431" transform="translate(252,115)"/>
<path d="M0 0 C1.32 0 2.64 0 4 0 C4.12375 0.78375 4.2475 1.5675 4.375 2.375 C4.79117993 5.14057822 4.79117993 5.14057822 7 7 C3.77208445 9.1519437 2.71599191 9.20086443 -1 9 C-0.67 6.03 -0.34 3.06 0 0 Z " fill="#E4E4E2" transform="translate(185,219)"/>
<path d="M0 0 C0.66 0 1.32 0 2 0 C1.125 7.75 1.125 7.75 0 10 C-1.32 10 -2.64 10 -4 10 C-4 9.34 -4 8.68 -4 8 C-4.99 7.67 -5.98 7.34 -7 7 C-7 5.02 -7 3.04 -7 1 C-6.34 2.32 -5.68 3.64 -5 5 C-4.01 4.67 -3.02 4.34 -2 4 C-2 3.34 -2 2.68 -2 2 C-1.34 2 -0.68 2 0 2 C0 1.34 0 0.68 0 0 Z " fill="#242133" transform="translate(223,167)"/>
<path d="M0 0 C1.65 0.33 3.3 0.66 5 1 C5 3.64 5 6.28 5 9 C3.02 9 1.04 9 -1 9 C-0.67 6.03 -0.34 3.06 0 0 Z " fill="#3B3A3F" transform="translate(152,219)"/>
<path d="M0 0 C0.66 0 1.32 0 2 0 C2 1.32 2 2.64 2 4 C3.32 3.34 4.64 2.68 6 2 C6.66 3.32 7.32 4.64 8 6 C6.35 6.33 4.7 6.66 3 7 C3 7.99 3 8.98 3 10 C1.68 10 0.36 10 -1 10 C-0.67 6.7 -0.34 3.4 0 0 Z " fill="#323040" transform="translate(228,182)"/>
<path d="M0 0 C0.33 0 0.66 0 1 0 C1.144375 1.0725 1.28875 2.145 1.4375 3.25 C1.88858511 6.77595708 1.88858511 6.77595708 2.625 9.25 C3 11 3 11 2 14 C0.35 13.67 -1.3 13.34 -3 13 C-2.34 12.67 -1.68 12.34 -1 12 C-1.165 11.38125 -1.33 10.7625 -1.5 10.125 C-2 8 -2 8 -2 6 C-2.66 5.67 -3.32 5.34 -4 5 C-2.69254251 3.31295807 -1.35827971 1.64639965 0 0 Z " fill="#F5F6F4" transform="translate(164,134)"/>
<path d="M0 0 C2.16874252 0.50603992 3.99967627 0.99983813 6 2 C6.33 1.34 6.66 0.68 7 0 C7 1.65 7 3.3 7 5 C5.02 5.33 3.04 5.66 1 6 C1 6.66 1 7.32 1 8 C-0.32 8 -1.64 8 -3 8 C-1.125 2.25 -1.125 2.25 0 0 Z " fill="#2E2C3B" transform="translate(268,154)"/>
<path d="M0 0 C-0.33 3.3 -0.66 6.6 -1 10 C-2.32 10 -3.64 10 -5 10 C-5.75 7.25 -5.75 7.25 -6 4 C-2.94736842 0 -2.94736842 0 0 0 Z " fill="#F5F4F8" transform="translate(233,156)"/>
<path d="M0 0 C1.32 0 2.64 0 4 0 C3.67 3.3 3.34 6.6 3 10 C2.01 10.33 1.02 10.66 0 11 C-0.99 8.69 -1.98 6.38 -3 4 C-2.34 3.34 -1.68 2.68 -1 2 C-0.67 2 -0.34 2 0 2 C0 1.34 0 0.68 0 0 Z " fill="#DFDFDD" transform="translate(246,219)"/>
<path d="M0 0 C0.33 0.66 0.66 1.32 1 2 C1.99 1.67 2.98 1.34 4 1 C4 1.99 4 2.98 4 4 C4.66 4.33 5.32 4.66 6 5 C3.03 6.65 0.06 8.3 -3 10 C-4 7 -4 7 -3.22265625 5.17578125 C-2.1484375 3.45052083 -1.07421875 1.72526042 0 0 Z " fill="#EDEDF1" transform="translate(175,138)"/>
<path d="M0 0 C0 0.66 0 1.32 0 2 C-2.4566947 3.00419637 -4.91518353 4.00350501 -7.375 5 C-8.42300781 5.42925781 -8.42300781 5.42925781 -9.4921875 5.8671875 C-14.7734375 8 -14.7734375 8 -17 8 C-16.67 7.01 -16.34 6.02 -16 5 C-15.34 5 -14.68 5 -14 5 C-14 4.34 -14 3.68 -14 3 C-14.66 3 -15.32 3 -16 3 C-15.67 2.34 -15.34 1.68 -15 1 C-14.01 1.33 -13.02 1.66 -12 2 C-9.81884536 2 -8.10618396 1.55751928 -6 1 C-3.89381604 0.44248072 -2.18115464 0 0 0 Z " fill="#E8E8E9" transform="translate(169,104)"/>
<path d="M0 0 C1.32 1.65 2.64 3.3 4 5 C3.34 5.66 2.68 6.32 2 7 C0.68 5.68 -0.64 4.36 -2 3 C-1.34 2.67 -0.68 2.34 0 2 C0 1.34 0 0.68 0 0 Z M-2.8125 3.9375 C-2.214375 4.288125 -1.61625 4.63875 -1 5 C-2.62366466 8.24732932 -5.75387839 8.70155136 -9 10 C-8.67 8.02 -8.34 6.04 -8 4 C-5 3 -5 3 -2.8125 3.9375 Z " fill="#242136" transform="translate(111,134)"/>
<path d="M0 0 C2.475 0.495 2.475 0.495 5 1 C5.625 3.3125 5.625 3.3125 6 6 C5.01 7.485 5.01 7.485 4 9 C4 9.99 4 10.98 4 12 C2.68 11.67 1.36 11.34 0 11 C0.66 9.35 1.32 7.7 2 6 C1.34 5.67 0.68 5.34 0 5 C0 3.35 0 1.7 0 0 Z " fill="#1D1B2B" transform="translate(32,220)"/>
<path d="M0 0 C2.50357861 0.8345262 4.66785852 1.79371992 7 3 C4.6875 5.0625 4.6875 5.0625 2 7 C0 6.33333333 -2 5.66666667 -4 5 C-3 2 -3 2 0 0 Z " fill="#272437" transform="translate(165,157)"/>
<path d="M0 0 C1.65 0 3.3 0 5 0 C4.67 2.97 4.34 5.94 4 9 C2.35 9 0.7 9 -1 9 C-0.67 6.03 -0.34 3.06 0 0 Z " fill="#474748" transform="translate(215,219)"/>
<path d="M0 0 C1.32 0.66 2.64 1.32 4 2 C3.67 2.66 3.34 3.32 3 4 C3.66 4.33 4.32 4.66 5 5 C4.67 5.99 4.34 6.98 4 8 C2.02 8 0.04 8 -2 8 C-2.125 5.125 -2.125 5.125 -2 2 C-1.34 1.34 -0.68 0.68 0 0 Z " fill="#292733" transform="translate(11,187)"/>
<path d="M0 0 C1.85776765 3.13498292 2.20140476 5.37471432 2 9 C0.02 9.99 0.02 9.99 -2 11 C-3.25 4.375 -3.25 4.375 -1 1 C-0.67 0.67 -0.34 0.34 0 0 Z " fill="#34323D" transform="translate(202,196)"/>
<path d="M0 0 C0.99 0 1.98 0 3 0 C2.34 2.97 1.68 5.94 1 9 C-2 8 -2 8 -3.6875 4.9375 C-4.120625 3.968125 -4.55375 2.99875 -5 2 C-3.35 2 -1.7 2 0 2 C0 1.34 0 0.68 0 0 Z " fill="#E8E7E9" transform="translate(33,209)"/>
<path d="M0 0 C0 0.66 0 1.32 0 2 C0.66 2 1.32 2 2 2 C1.67 4.31 1.34 6.62 1 9 C-0.5 7.625 -0.5 7.625 -2 6 C-2 5.34 -2 4.68 -2 4 C-3.32 4 -4.64 4 -6 4 C-6 3.01 -6 2.02 -6 1 C-4 0 -4 0 0 0 Z " fill="#232033" transform="translate(101,184)"/>
<path d="M0 0 C1.98 0.495 1.98 0.495 4 1 C3.67 3.64 3.34 6.28 3 9 C1.68 9 0.36 9 -1 9 C-0.67 6.03 -0.34 3.06 0 0 Z " fill="#434343" transform="translate(121,219)"/>
<path d="M0 0 C0.66 0.33 1.32 0.66 2 1 C2 2.65 2 4.3 2 6 C0.865625 6.12375 -0.26875 6.2475 -1.4375 6.375 C-3.2009375 6.684375 -3.2009375 6.684375 -5 7 C-5.33 7.66 -5.66 8.32 -6 9 C-6 8.01 -6 7.02 -6 6 C-6.66 5.67 -7.32 5.34 -8 5 C-7.34 3.68 -6.68 2.36 -6 1 C-5.67 1.99 -5.34 2.98 -5 4 C-1.87802522 2.6910428 -1.87802522 2.6910428 0 0 Z " fill="#221F2F" transform="translate(47,197)"/>
<path d="M0 0 C0 0.66 0 1.32 0 2 C-0.66 2 -1.32 2 -2 2 C-2 2.66 -2 3.32 -2 4 C-2.639375 4.28875 -3.27875 4.5775 -3.9375 4.875 C-6.15206079 5.82823451 -6.15206079 5.82823451 -7 8 C-8.65 8 -10.3 8 -12 8 C-11.77734375 6.140625 -11.77734375 6.140625 -11 4 C-9.00390625 2.734375 -9.00390625 2.734375 -6.5625 1.75 C-5.75941406 1.41484375 -4.95632812 1.0796875 -4.12890625 0.734375 C-2 0 -2 0 0 0 Z " fill="#343240" transform="translate(160,109)"/>
<path d="M0 0 C0.66 0.33 1.32 0.66 2 1 C2 2.32 2 3.64 2 5 C2.66 5.33 3.32 5.66 4 6 C4.99 7.485 4.99 7.485 6 9 C4.68 10.32 3.36 11.64 2 13 C1.46605821 11.5882217 0.94834896 10.17029756 0.4375 8.75 C0.14746094 7.96109375 -0.14257812 7.1721875 -0.44140625 6.359375 C-1.04522837 3.80896548 -0.8473932 2.44677771 0 0 Z " fill="#302E3B" transform="translate(17,182)"/>
<path d="M0 0 C2.475 0.99 2.475 0.99 5 2 C5 3.65 5 5.3 5 7 C4.38125 7.103125 3.7625 7.20625 3.125 7.3125 C0.63473516 7.87525373 0.63473516 7.87525373 -1 11 C-1.0270043 9.54176788 -1.04639787 8.08339325 -1.0625 6.625 C-1.07410156 5.81289062 -1.08570313 5.00078125 -1.09765625 4.1640625 C-1 2 -1 2 0 0 Z " fill="#242235" transform="translate(182,153)"/>
<path d="M0 0 C0.33 0 0.66 0 1 0 C1.33 1.98 1.66 3.96 2 6 C2.99 6 3.98 6 5 6 C5.33 6.99 5.66 7.98 6 9 C6.66 9 7.32 9 8 9 C7.67 10.32 7.34 11.64 7 13 C6.401875 12.690625 5.80375 12.38125 5.1875 12.0625 C2.91043228 10.89790296 2.91043228 10.89790296 0 10 C0 6.7 0 3.4 0 0 Z " fill="#3C3A4A" transform="translate(215,168)"/>
<path d="M0 0 C0.99 0.33 1.98 0.66 3 1 C2.67 1.66 2.34 2.32 2 3 C2.39938767 5.09821215 2.39938767 5.09821215 3 7 C2.01 7.495 2.01 7.495 1 8 C0.67 8.99 0.34 9.98 0 11 C-0.99 10.67 -1.98 10.34 -3 10 C-2.49287967 6.28111761 -1.88391785 3.26545761 0 0 Z " fill="#26233B" transform="translate(176,146)"/>
<path d="M0 0 C0.66 0 1.32 0 2 0 C2.33 0.99 2.66 1.98 3 3 C3.99 3.33 4.98 3.66 6 4 C5.34 4 4.68 4 4 4 C5.32 5.65 6.64 7.3 8 9 C5.625 9.625 5.625 9.625 3 10 C-0.00617269 6.99382731 0.40414684 4.17618402 0 0 Z " fill="#484755" transform="translate(164,133)"/>
<path d="M0 0 C0.928125 0.165 1.85625 0.33 2.8125 0.5 C5.95621353 1.07748388 5.95621353 1.07748388 9 1 C8 4 8 4 5.9375 5.1875 C5.298125 5.455625 4.65875 5.72375 4 6 C4.33 5.01 4.66 4.02 5 3 C4.34 3 3.68 3 3 3 C2.67 3.99 2.34 4.98 2 6 C1.01 5.01 0.02 4.02 -1 3 C-0.67 2.01 -0.34 1.02 0 0 Z " fill="#1E1C29" transform="translate(20,211)"/>
<path d="M0 0 C0.33 0 0.66 0 1 0 C1.33 3.3 1.66 6.6 2 10 C2.33 9.34 2.66 8.68 3 8 C3.66 8 4.32 8 5 8 C4.67 10.31 4.34 12.62 4 15 C2.68 14.67 1.36 14.34 0 14 C0 9.38 0 4.76 0 0 Z " fill="#201D2D" transform="translate(200,179)"/>
<path d="M0 0 C0.66 0.99 1.32 1.98 2 3 C1.34 3 0.68 3 0 3 C1.11854586 6.72614153 1.11854586 6.72614153 4 9 C4 9.66 4 10.32 4 11 C1.03 10.01 -1.94 9.02 -5 8 C-4.505 7.401875 -4.01 6.80375 -3.5 6.1875 C-1.71723582 4.02970006 -1.71723582 4.02970006 -2 1 C-1.34 0.67 -0.68 0.34 0 0 Z " fill="#FCFDFC" transform="translate(162,139)"/>
<path d="M0 0 C6.0546875 -0.1953125 6.0546875 -0.1953125 8 0 C8.66 0.66 9.32 1.32 10 2 C9.625 5.625 9.625 5.625 9 9 C8.34 8.67 7.68 8.34 7 8 C7 6.35 7 4.7 7 3 C4.69 2.34 2.38 1.68 0 1 C0 0.67 0 0.34 0 0 Z " fill="#363440" transform="translate(80,80)"/>
<path d="M0 0 C0.99 0 1.98 0 3 0 C2.67 0.99 2.34 1.98 2 3 C2.38932856 5.14255793 2.38932856 5.14255793 3 7 C1.02 7.99 1.02 7.99 -1 9 C-1.80967438 6.08517222 -2.21845993 4.53886783 -1.0625 1.6875 C-0.711875 1.130625 -0.36125 0.57375 0 0 Z " fill="#3A3A38" transform="translate(59,219)"/>
<path d="M0 0 C1.32 0 2.64 0 4 0 C4.125 3.375 4.125 3.375 4 7 C3.34 7.66 2.68 8.32 2 9 C2 8.34 2 7.68 2 7 C1.34 7 0.68 7 0 7 C-0.38133299 5.0085944 -0.71325582 3.00720923 -1 1 C-0.67 0.67 -0.34 0.34 0 0 Z " fill="#252234" transform="translate(266,171)"/>
<path d="M0 0 C0.33 0 0.66 0 1 0 C1.33 3.63 1.66 7.26 2 11 C0.35 11.66 -1.3 12.32 -3 13 C-2.01 8.71 -1.02 4.42 0 0 Z " fill="#E2E1E7" transform="translate(247,144)"/>
<path d="M0 0 C0.66 0.33 1.32 0.66 2 1 C1.34 3.31 0.68 5.62 0 8 C-2.46800047 6.84826645 -4.04783565 5.95216435 -6 4 C-4.02 2.68 -2.04 1.36 0 0 Z " fill="#D7D7E2" transform="translate(102,149)"/>
<path d="M0 0 C2.4375 0.75 2.4375 0.75 5 2 C5.8125 4.125 5.8125 4.125 6 6 C3.69 6.33 1.38 6.66 -1 7 C-1.33 5.35 -1.66 3.7 -2 2 C-1.34 2 -0.68 2 0 2 C0 1.34 0 0.68 0 0 Z " fill="#FAFCFC" transform="translate(155,150)"/>
<path d="M0 0 C0.66 0.33 1.32 0.66 2 1 C1.505 1.94875 1.01 2.8975 0.5 3.875 C-1.14424369 6.72278166 -1.14424369 6.72278166 -1 9 C-0.34 9.33 0.32 9.66 1 10 C0.01 10.33 -0.98 10.66 -2 11 C-2 10.34 -2 9.68 -2 9 C-2.99 8.67 -3.98 8.34 -5 8 C-4.34 8 -3.68 8 -3 8 C-3 6.02 -3 4.04 -3 2 C-3.66 1.67 -4.32 1.34 -5 1 C-3 0 -3 0 0 0 Z " fill="#2F2D41" transform="translate(98,142)"/>
<path d="M0 0 C2 3 2 3 1.79296875 5.19140625 C1.49326172 6.36509766 1.49326172 6.36509766 1.1875 7.5625 C0.99542969 8.34753906 0.80335937 9.13257813 0.60546875 9.94140625 C0 12 0 12 -1 14 C-2.98 14 -4.96 14 -7 14 C-6.67 13.34 -6.34 12.68 -6 12 C-5.01 12 -4.02 12 -3 12 C-2.86722656 11.38511719 -2.73445313 10.77023438 -2.59765625 10.13671875 C-2.33275391 8.92435547 -2.33275391 8.92435547 -2.0625 7.6875 C-1.88847656 6.88699219 -1.71445313 6.08648437 -1.53515625 5.26171875 C-1 3 -1 3 0 0 Z " fill="#3C3A46" transform="translate(111,124)"/>
<path d="M0 0 C0.66 0.33 1.32 0.66 2 1 C1.67 1.99 1.34 2.98 1 4 C-0.175625 4.12375 -0.175625 4.12375 -1.375 4.25 C-4.14749104 4.72806339 -4.14749104 4.72806339 -5.3125 7.0625 C-5.539375 7.701875 -5.76625 8.34125 -6 9 C-6.33 8.01 -6.66 7.02 -7 6 C-7.99 5.67 -8.98 5.34 -10 5 C-8.38007835 4.13624104 -6.75388139 3.28424146 -5.125 2.4375 C-4.22007812 1.96183594 -3.31515625 1.48617187 -2.3828125 0.99609375 C-1.20332031 0.50302734 -1.20332031 0.50302734 0 0 Z " fill="#E2E1E6" transform="translate(166,113)"/>
<path d="M0 0 C3.67761277 2.94209022 4.72431991 5.59081436 5.80078125 10 C6.02364169 12.23734399 5.66235534 13.86521444 5 16 C2.22439323 11.04355934 1.00917206 5.55044635 0 0 Z " fill="#35333E" transform="translate(253,116)"/>
<path d="M0 0 C0.66 0 1.32 0 2 0 C2 2.97 2 5.94 2 9 C0.35 9 -1.3 9 -3 9 C-2.30058404 5.85262818 -1.23921302 2.97411124 0 0 Z " fill="#3E3E3D" transform="translate(91,219)"/>
<path d="M0 0 C-0.11458693 1.43836751 -0.24209116 2.87570966 -0.375 4.3125 C-0.44460937 5.11300781 -0.51421875 5.91351563 -0.5859375 6.73828125 C-1 9 -1 9 -3 12 C-3.66 11.34 -4.32 10.68 -5 10 C-4.66083005 6.81180248 -4.01406317 4.04218951 -3 1 C-1 0 -1 0 0 0 Z " fill="#262333" transform="translate(211,157)"/>
<path d="M0 0 C0.33 0 0.66 0 1 0 C1.36630156 3.93774177 1.30233203 5.56539771 -1 8.875 C-1.66 9.57625 -2.32 10.2775 -3 11 C-3.625 8.1875 -3.625 8.1875 -4 5 C-3.34 4.01 -2.68 3.02 -2 2 C-1.34 2 -0.68 2 0 2 C0 1.34 0 0.68 0 0 Z " fill="#F4F3F7" transform="translate(219,139)"/>
<path d="M0 0 C0.33 0 0.66 0 1 0 C1.05384521 2.29141286 1.09272087 4.58318188 1.125 6.875 C1.14820313 8.15117187 1.17140625 9.42734375 1.1953125 10.7421875 C1 14 1 14 -1 16 C-1.33 11.71 -1.66 7.42 -2 3 C-1.34 3 -0.68 3 0 3 C0 2.01 0 1.02 0 0 Z " fill="#383643" transform="translate(292,138)"/>
<path d="M0 0 C0.99 0.33 1.98 0.66 3 1 C3.6875 4.3125 3.6875 4.3125 4 8 C2.5625 9.9375 2.5625 9.9375 1 11 C-0.2509564 7.24713079 0 3.94020864 0 0 Z " fill="#DEDCE4" transform="translate(89,162)"/>
<path d="M0 0 C0 1.32 0 2.64 0 4 C-1.75 5.125 -1.75 5.125 -4 6 C-6.69933926 5.07451225 -7.71186768 4.57626463 -9 2 C-3.375 0 -3.375 0 0 0 Z " fill="#383740" transform="translate(238,118)"/>
<path d="M0 0 C0.66 0.33 1.32 0.66 2 1 C2.4140625 3.06640625 2.4140625 3.06640625 2.625 5.5625 C2.69976562 6.38878906 2.77453125 7.21507812 2.8515625 8.06640625 C2.92503906 9.02353516 2.92503906 9.02353516 3 10 C1.68 10.33 0.36 10.66 -1 11 C-1.14285714 3.57142857 -1.14285714 3.57142857 0 0 Z " fill="#221F31" transform="translate(253,167)"/>
<path d="M0 0 C1.98 0.99 1.98 0.99 4 2 C4.33 1.34 4.66 0.68 5 0 C5.33 1.98 5.66 3.96 6 6 C5.01 6 4.02 6 3 6 C2.67 6.99 2.34 7.98 2 9 C-0.29013653 5.5647952 -0.17842973 4.014669 0 0 Z " fill="#262334" transform="translate(139,159)"/>
<path d="M0 0 C1.32 0.99 2.64 1.98 4 3 C3.125 9.75 3.125 9.75 2 12 C1.34 11.67 0.68 11.34 0 11 C0 7.37 0 3.74 0 0 Z " fill="#221F30" transform="translate(73,115)"/>
<path d="M0 0 C0.86625 0.495 0.86625 0.495 1.75 1 C4.19883862 2.27075898 4.19883862 2.27075898 8 2 C8.66 1.34 9.32 0.68 10 0 C9.125 3.875 9.125 3.875 8 5 C5.0625 5.1875 5.0625 5.1875 2 5 C1.34 4.34 0.68 3.68 0 3 C0 2.01 0 1.02 0 0 Z " fill="#F1F1F2" transform="translate(299,122)"/>
<path d="M0 0 C0.66 0 1.32 0 2 0 C2.625 2.375 2.625 2.375 3 5 C1 7 1 7 -2.625 7.125 C-3.73875 7.08375 -4.8525 7.0425 -6 7 C-6 6.01 -6 5.02 -6 4 C-5.34 4 -4.68 4 -4 4 C-4 4.66 -4 5.32 -4 6 C-3.01 5.67 -2.02 5.34 -1 5 C-0.67 3.35 -0.34 1.7 0 0 Z " fill="#DBDBDD" transform="translate(185,182)"/>
<path d="M0 0 C3.96 1.98 3.96 1.98 8 4 C7.01 5.485 7.01 5.485 6 7 C5.34 6.67 4.68 6.34 4 6 C1.90178785 6.39938767 1.90178785 6.39938767 0 7 C0 4.69 0 2.38 0 0 Z " fill="#302E41" transform="translate(141,163)"/>
<path d="M0 0 C1.32 0 2.64 0 4 0 C4.6875 2.3125 4.6875 2.3125 5 5 C3.6875 6.8125 3.6875 6.8125 2 8 C1.34 8 0.68 8 0 8 C0 5.36 0 2.72 0 0 Z " fill="#373446" transform="translate(216,160)"/>
<path d="M0 0 C0.66 0 1.32 0 2 0 C4.49584488 7.63434903 4.49584488 7.63434903 3 11 C2.34 11.66 1.68 12.32 1 13 C1.33 10.03 1.66 7.06 2 4 C0.68 3.34 -0.64 2.68 -2 2 C-1.34 1.34 -0.68 0.68 0 0 Z " fill="#E2E2E7" transform="translate(130,133)"/>
<path d="M0 0 C1.32 0.33 2.64 0.66 4 1 C3.34 2.98 2.68 4.96 2 7 C-0.31 6.67 -2.62 6.34 -5 6 C-3.625 4.5 -3.625 4.5 -2 3 C-1.34 3 -0.68 3 0 3 C0 2.01 0 1.02 0 0 Z " fill="#D9D8DE" transform="translate(238,119)"/>
<path d="M0 0 C1.32 0.99 2.64 1.98 4 3 C4.66 2.34 5.32 1.68 6 1 C6.33 1.66 6.66 2.32 7 3 C5.35 4.65 3.7 6.3 2 8 C1.34 7.67 0.68 7.34 0 7 C0 4.69 0 2.38 0 0 Z " fill="#EAEAE8" transform="translate(249,216)"/>
<path d="M0 0 C0.99 0.66 1.98 1.32 3 2 C3.1875 4.625 3.1875 4.625 3 7 C2.01 7.33 1.02 7.66 0 8 C-0.33 8.99 -0.66 9.98 -1 11 C-1.99 10.67 -2.98 10.34 -4 10 C-3.34 10 -2.68 10 -2 10 C-1.34 6.7 -0.68 3.4 0 0 Z " fill="#393744" transform="translate(36,208)"/>
<path d="M0 0 C0.66 1.32 1.32 2.64 2 4 C-2.625 8 -2.625 8 -6 8 C-5.67 7.01 -5.34 6.02 -5 5 C-2.9375 4.3125 -2.9375 4.3125 -1 4 C-1 3.34 -1 2.68 -1 2 C-1.66 1.67 -2.32 1.34 -3 1 C-2.01 0.67 -1.02 0.34 0 0 Z " fill="#343240" transform="translate(164,161)"/>
<path d="M0 0 C-0.33 2.31 -0.66 4.62 -1 7 C-1.99 7 -2.98 7 -4 7 C-3.67 6.34 -3.34 5.68 -3 5 C-3.66 5 -4.32 5 -5 5 C-5 4.01 -5 3.02 -5 2 C-2 0 -2 0 0 0 Z " fill="#DDDCE3" transform="translate(206,139)"/>
<path d="M0 0 C0.721875 0.103125 1.44375 0.20625 2.1875 0.3125 C1.8575 1.3025 1.5275 2.2925 1.1875 3.3125 C-1.1225 3.6425 -3.4325 3.9725 -5.8125 4.3125 C-5.8125 4.9725 -5.8125 5.6325 -5.8125 6.3125 C-6.4725 5.9825 -7.1325 5.6525 -7.8125 5.3125 C-3.50480769 0.38942308 -3.50480769 0.38942308 0 0 Z " fill="#34333D" transform="translate(285.8125,128.6875)"/>
<path d="M0 0 C4.82029598 3.73572939 4.82029598 3.73572939 5.33203125 7.3359375 C5.31436669 9.5758033 5.21850902 11.77120799 5 14 C4.67 14 4.34 14 4 14 C4 11.36 4 8.72 4 6 C2.68 5.67 1.36 5.34 0 5 C0.33 4.01 0.66 3.02 1 2 C0.34 1.67 -0.32 1.34 -1 1 C-0.67 0.67 -0.34 0.34 0 0 Z " fill="#403D4B" transform="translate(172,120)"/>
<path d="M0 0 C3.35433109 0.94933899 6.69246505 1.89748835 10 3 C6.36576791 5.32590854 3.22911669 5.16265833 -1 5 C-0.67 3.35 -0.34 1.7 0 0 Z " fill="#272437" transform="translate(147,115)"/>
<path d="M0 0 C2.31 0 4.62 0 7 0 C6.75 1.875 6.75 1.875 6 4 C3.9375 5.25 3.9375 5.25 2 6 C2 4.35 2 2.7 2 1 C1.34 0.67 0.68 0.34 0 0 Z " fill="#3B3A41" transform="translate(174,103)"/>
<path d="M0 0 C0 0.66 0 1.32 0 2 C-0.94875 2.12375 -1.8975 2.2475 -2.875 2.375 C-6.08667191 2.71687177 -6.08667191 2.71687177 -8 5 C-8 4.34 -8 3.68 -8 3 C-8.66 2.67 -9.32 2.34 -10 2 C-7.92023276 -2.15953447 -3.80922545 -1.26974182 0 0 Z " fill="#E5E5E7" transform="translate(227,90)"/>
<path d="M0 0 C0.99 0 1.98 0 3 0 C3 1.32 3 2.64 3 4 C2.01 4.495 2.01 4.495 1 5 C1.33 6.32 1.66 7.64 2 9 C1.01 9 0.02 9 -1 9 C-0.67 6.03 -0.34 3.06 0 0 Z " fill="#333331" transform="translate(185,219)"/>
<path d="M0 0 C0.66 1.32 1.32 2.64 2 4 C1.34 4 0.68 4 0 4 C0.2784375 5.175625 0.2784375 5.175625 0.5625 6.375 C1 9 1 9 0 11 C-0.99 11 -1.98 11 -3 11 C-2.44894091 7.0507432 -1.61064629 3.65079826 0 0 Z " fill="#DDDCE1" transform="translate(77,120)"/>
<path d="M0 0 C0.99 0.33 1.98 0.66 3 1 C2.42655063 3.86724686 2.1385485 4.8614515 0 7 C-0.99 6.34 -1.98 5.68 -3 5 C-1.125 1.125 -1.125 1.125 0 0 Z " fill="#FBFCFC" transform="translate(146,125)"/>
<path d="M0 0 C0.99 0.33 1.98 0.66 3 1 C4.1875 4.0625 4.1875 4.0625 5 7 C3.68 7.33 2.36 7.66 1 8 C1.33 6.02 1.66 4.04 2 2 C0.68 2.33 -0.64 2.66 -2 3 C-1.34 2.01 -0.68 1.02 0 0 Z " fill="#353341" transform="translate(65,88)"/>
<path d="M0 0 C2.00720923 0.28674418 4.0085944 0.61866701 6 1 C5.67 2.98 5.34 4.96 5 7 C4.34 7 3.68 7 3 7 C2.71125 6.38125 2.4225 5.7625 2.125 5.125 C1.06279958 2.86674235 1.06279958 2.86674235 -1 1 C-0.67 0.67 -0.34 0.34 0 0 Z " fill="#F5F6F5" transform="translate(147,123)"/>
<path d="M0 0 C0.33 0.66 0.66 1.32 1 2 C1.66 2.33 2.32 2.66 3 3 C2.01 3 1.02 3 0 3 C0 3.66 0 4.32 0 5 C0.66 5.66 1.32 6.32 2 7 C0.02 7.33 -1.96 7.66 -4 8 C-3.6875 5.125 -3.6875 5.125 -3 2 C-2.01 1.34 -1.02 0.68 0 0 Z " fill="#2E2C3C" transform="translate(33,224)"/>
<path d="M0 0 C0.99 1.32 1.98 2.64 3 4 C2.360625 4.12375 1.72125 4.2475 1.0625 4.375 C0.0415625 4.684375 0.0415625 4.684375 -1 5 C-1.33 5.66 -1.66 6.32 -2 7 C-2.66 5.68 -3.32 4.36 -4 3 C-2.68 2.01 -1.36 1.02 0 0 Z " fill="#2E2B3B" transform="translate(35,170)"/>
<path d="M0 0 C0 3.10551666 -0.5393715 4.35261084 -2 7 C-3.65 7 -5.3 7 -7 7 C-5.54744301 3.17053157 -3.57104439 1.87949705 0 0 Z " fill="#E0DFE2" transform="translate(199,142)"/>
<path d="M0 0 C0.33 0.66 0.66 1.32 1 2 C0.34 2.66 -0.32 3.32 -1 4 C-1.6425235 6.06874034 -1.6425235 6.06874034 -2 8 C-2.66 8 -3.32 8 -4 8 C-4.33 5.69 -4.66 3.38 -5 1 C-3.35 0.67 -1.7 0.34 0 0 Z " fill="#201D31" transform="translate(223,123)"/>
<path d="M0 0 C0.33 1.32 0.66 2.64 1 4 C2.1490712 5.2981424 2.1490712 5.2981424 5 6 C2.64046906 8.35953094 1.22104383 8.49141413 -2 9 C-1.34 6.03 -0.68 3.06 0 0 Z " fill="#D8D6DF" transform="translate(224,114)"/>
<path d="M0 0 C0 1.32 0 2.64 0 4 C-1.98 4 -3.96 4 -6 4 C-6.33 3.01 -6.66 2.02 -7 1 C-4.53721199 -0.231394 -2.7204945 -0.07159196 0 0 Z " fill="#292639" transform="translate(171,152)"/>
<path d="M0 0 C0.99 0.33 1.98 0.66 3 1 C3 1.99 3 2.98 3 4 C1.02 4.99 -0.96 5.98 -3 7 C-3 6.01 -3 5.02 -3 4 C-2.01 3.67 -1.02 3.34 0 3 C0 2.01 0 1.02 0 0 Z " fill="#EAEAEB" transform="translate(92,139)"/>
<path d="M0 0 C0.66 0.99 1.32 1.98 2 3 C1.125 6.6875 1.125 6.6875 0 10 C-0.99 10 -1.98 10 -3 10 C-2.01 6.7 -1.02 3.4 0 0 Z " fill="#383640" transform="translate(63,122)"/>
<path d="M0 0 C0.33 0.66 0.66 1.32 1 2 C1.66 2.33 2.32 2.66 3 3 C2.01 4.98 1.02 6.96 0 9 C-0.185625 8.13375 -0.185625 8.13375 -0.375 7.25 C-1.00648824 4.97664233 -1.88858191 3.0746471 -3 1 C-2.01 0.67 -1.02 0.34 0 0 Z " fill="#2F2B47" transform="translate(166,122)"/>
<path d="M0 0 C-0.375 2.9375 -0.375 2.9375 -1 6 C-1.99 6.495 -1.99 6.495 -3 7 C-3 6.01 -3 5.02 -3 4 C-3.66 4 -4.32 4 -5 4 C-4.67 3.01 -4.34 2.02 -4 1 C-2 0 -2 0 0 0 Z " fill="#242035" transform="translate(223,116)"/>
<path d="M0 0 C1.98 0.495 1.98 0.495 4 1 C4.33 2.32 4.66 3.64 5 5 C3.02 5.66 1.04 6.32 -1 7 C-0.67 6.01 -0.34 5.02 0 4 C0.66 4 1.32 4 2 4 C2 3.34 2 2.68 2 2 C1.34 2 0.68 2 0 2 C0 1.34 0 0.68 0 0 Z " fill="#F0F0F2" transform="translate(153,105)"/>
<path d="M0 0 C0.99 0 1.98 0 3 0 C3 1.32 3 2.64 3 4 C0.5 5.75 0.5 5.75 -2 7 C-1.125 1.125 -1.125 1.125 0 0 Z " fill="#EBEBE9" transform="translate(68,81)"/>
<path d="M0 0 C0.66 0 1.32 0 2 0 C2 0.66 2 1.32 2 2 C1.34 2 0.68 2 0 2 C0.99 3.485 0.99 3.485 2 5 C1.625 7.1875 1.625 7.1875 1 9 C0.01 9 -0.98 9 -2 9 C-2 8.34 -2 7.68 -2 7 C-1.34 7 -0.68 7 0 7 C-0.185625 6.030625 -0.37125 5.06125 -0.5625 4.0625 C-0.706875 3.051875 -0.85125 2.04125 -1 1 C-0.67 0.67 -0.34 0.34 0 0 Z " fill="#2E2E2C" transform="translate(278,219)"/>
<path d="M0 0 C1.32 0 2.64 0 4 0 C3.34 2.97 2.68 5.94 2 9 C1.67 9 1.34 9 1 9 C0.67 6.03 0.34 3.06 0 0 Z " fill="#3B3B39" transform="translate(246,219)"/>
<path d="M0 0 C0.99 0.99 1.98 1.98 3 3 C2.6875 6.6875 2.6875 6.6875 2 10 C1.01 9.67 0.02 9.34 -1 9 C-0.67 6.03 -0.34 3.06 0 0 Z " fill="#4A4852" transform="translate(234,149)"/>
<path d="M0 0 C0.33 0 0.66 0 1 0 C1.33 1.65 1.66 3.3 2 5 C2.66 4.67 3.32 4.34 4 4 C4 5.65 4 7.3 4 9 C4.99 9.33 5.98 9.66 7 10 C3 10 3 10 1.25 8.9375 C-0.63418409 6.01701466 -0.19163343 3.38552395 0 0 Z " fill="#211D32" transform="translate(249,145)"/>
<path d="M0 0 C0.66 0.33 1.32 0.66 2 1 C1.34 3.97 0.68 6.94 0 10 C-2.08120514 5.83758971 -2.24191133 5.17733811 -1 1 C-0.67 0.67 -0.34 0.34 0 0 Z " fill="#ECECF0" transform="translate(53,147)"/>
<path d="M0 0 C0.66 0 1.32 0 2 0 C1.34 2.97 0.68 5.94 0 9 C-2 7 -2 7 -2.25 4.5 C-2 2 -2 2 0 0 Z " fill="#343240" transform="translate(216,135)"/>
<path d="M0 0 C2 2 2 2 2.25 4.4375 C2 7 2 7 0 10 C-0.66 10 -1.32 10 -2 10 C-1.34 6.7 -0.68 3.4 0 0 Z " fill="#383645" transform="translate(188,115)"/>
<path d="M0 0 C0.66 0.66 1.32 1.32 2 2 C2.66 1.67 3.32 1.34 4 1 C4.99 1.66 5.98 2.32 7 3 C4 5 4 5 1.8125 4.625 C1.214375 4.41875 0.61625 4.2125 0 4 C0 2.68 0 1.36 0 0 Z " fill="#252335" transform="translate(141,120)"/>
<path d="M0 0 C1.65 0.33 3.3 0.66 5 1 C4.67 1.66 4.34 2.32 4 3 C3.34 3 2.68 3 2 3 C1.67 4.65 1.34 6.3 1 8 C0.67 8 0.34 8 0 8 C-1.125 2.25 -1.125 2.25 0 0 Z " fill="#E7E7E5" transform="translate(89,216)"/>
<path d="M0 0 C0 3 0 3 -2 6 C-4.625 6.1875 -4.625 6.1875 -7 6 C-4.74259377 3.66475218 -2.7194239 1.81294927 0 0 Z " fill="#E4E4E7" transform="translate(33,183)"/>
<path d="M0 0 C0 3 0 3 -1 6 C-2.65 5.67 -4.3 5.34 -6 5 C-5.195625 4.360625 -4.39125 3.72125 -3.5625 3.0625 C-1.7249496 1.59396498 -1.7249496 1.59396498 0 0 Z M-6 6 C-4 7 -4 7 -4 7 Z " fill="#EEEDEF" transform="translate(267,182)"/>
<path d="M0 0 C0.66 1.32 1.32 2.64 2 4 C1.01 4.66 0.02 5.32 -1 6 C-1.99 5.34 -2.98 4.68 -4 4 C-3.67 3.01 -3.34 2.02 -3 1 C-2.01 0.67 -1.02 0.34 0 0 Z " fill="#1F1D2E" transform="translate(52,161)"/>
<path d="M0 0 C0.33 0 0.66 0 1 0 C1 2.31 1 4.62 1 7 C-0.65 6.67 -2.3 6.34 -4 6 C-2.69593116 3.98079663 -1.36176581 1.98075027 0 0 Z " fill="#E6E6EC" transform="translate(164,134)"/>
<path d="M0 0 C1.65 0 3.3 0 5 0 C3.70700306 2.88437779 2.34058637 4.87219421 0 7 C0 4.69 0 2.38 0 0 Z " fill="#333338" transform="translate(215,219)"/>
<path d="M0 0 C0.99 0.33 1.98 0.66 3 1 C2.67 2.98 2.34 4.96 2 7 C-1.875 4.25 -1.875 4.25 -3 2 C-2.01 2 -1.02 2 0 2 C0 1.34 0 0.68 0 0 Z " fill="#F6F6F4" transform="translate(245,216)"/>
<path d="M0 0 C3 3.75 3 3.75 3 6 C2.01 6.33 1.02 6.66 0 7 C-0.66 6.67 -1.32 6.34 -2 6 C-2 4.68 -2 3.36 -2 2 C-1.34 2 -0.68 2 0 2 C0 1.34 0 0.68 0 0 Z " fill="#201D2D" transform="translate(21,202)"/>
<path d="M0 0 C2.475 0.495 2.475 0.495 5 1 C5 1.99 5 2.98 5 4 C4.01 4 3.02 4 2 4 C1.34 4.66 0.68 5.32 0 6 C0 4.02 0 2.04 0 0 Z " fill="#232131" transform="translate(94,190)"/>
<path d="M0 0 C0.99 0.33 1.98 0.66 3 1 C2 4 2 4 -1.0625 5.6875 C-2.031875 6.120625 -3.00125 6.55375 -4 7 C-4.33 6.34 -4.66 5.68 -5 5 C-3.35 3.35 -1.7 1.7 0 0 Z " fill="#E8E7E8" transform="translate(296,179)"/>
<path d="M0 0 C-0.375 2.4375 -0.375 2.4375 -1 5 C-1.99 5.495 -1.99 5.495 -3 6 C-3.66 4.35 -4.32 2.7 -5 1 C-2 0 -2 0 0 0 Z " fill="#424146" transform="translate(297,176)"/>
<path d="M0 0 C0.99 0.33 1.98 0.66 3 1 C2.67 3.31 2.34 5.62 2 8 C1.67 7.34 1.34 6.68 1 6 C0.34 6 -0.32 6 -1 6 C-0.67 4.02 -0.34 2.04 0 0 Z " fill="#3C3B4A" transform="translate(106,164)"/>
<path d="M0 0 C2 4 2 4 1.625 6.25 C1.41875 6.8275 1.2125 7.405 1 8 C-0.32 8.33 -1.64 8.66 -3 9 C-2.01 6.03 -1.02 3.06 0 0 Z " fill="#3F3D4A" transform="translate(53,153)"/>
<path d="M0 0 C0.93065133 2.60582371 1.14917407 3.64198224 0.0625 6.25 C-0.4634375 7.11625 -0.4634375 7.11625 -1 8 C-1.66 7.01 -2.32 6.02 -3 5 C-2.67 4.67 -2.34 4.34 -2 4 C-2.66 3.34 -3.32 2.68 -4 2 C-2.68 1.34 -1.36 0.68 0 0 Z " fill="#39384A" transform="translate(180,143)"/>
<path d="M0 0 C0.66 0.99 1.32 1.98 2 3 C1.34 3 0.68 3 0 3 C-0.33 3.66 -0.66 4.32 -1 5 C-1.66 5 -2.32 5 -3 5 C-3.66 5.66 -4.32 6.32 -5 7 C-4.75 4.625 -4.75 4.625 -4 2 C-1.9375 0.6875 -1.9375 0.6875 0 0 Z " fill="#221F30" transform="translate(61,141)"/>
<path d="M0 0 C1.32 0.66 2.64 1.32 4 2 C2.515 4.475 2.515 4.475 1 7 C-0.0625 5.1875 -0.0625 5.1875 -1 3 C-0.67 2.01 -0.34 1.02 0 0 Z " fill="#E0E0E6" transform="translate(143,138)"/>
<path d="M0 0 C0.66 0 1.32 0 2 0 C1.34 3.3 0.68 6.6 0 10 C-2 6 -2 6 -1.125 2.75 C-0.75375 1.8425 -0.3825 0.935 0 0 Z " fill="#EBEBED" transform="translate(61,122)"/>
<path d="M0 0 C0.99 0 1.98 0 3 0 C3 1.65 3 3.3 3 5 C1.68 5 0.36 5 -1 5 C-0.67 3.35 -0.34 1.7 0 0 Z " fill="#272435" transform="translate(173,104)"/>
<path d="M0 0 C0.99 0.33 1.98 0.66 3 1 C2.67 2.65 2.34 4.3 2 6 C1.01 6 0.02 6 -1 6 C-1.33 4.35 -1.66 2.7 -2 1 C-1.34 0.67 -0.68 0.34 0 0 Z " fill="#1E1C2B" transform="translate(29,225)"/>
<path d="M0 0 C2 3 2 3 1.625 5.6875 C1.41875 6.450625 1.2125 7.21375 1 8 C0.01 8 -0.98 8 -2 8 C-1.34 5.36 -0.68 2.72 0 0 Z " fill="#37363F" transform="translate(39,198)"/>
<path d="M0 0 C0.66 0 1.32 0 2 0 C2.66 2.97 3.32 5.94 4 9 C1.43135272 7.71567636 1.053461 6.63365249 0 4 C0 2.68 0 1.36 0 0 Z " fill="#211F2E" transform="translate(226,199)"/>
<path d="M0 0 C0.33 1.32 0.66 2.64 1 4 C0.01 4 -0.98 4 -2 4 C-2.33 4.66 -2.66 5.32 -3 6 C-3.66 5.67 -4.32 5.34 -5 5 C-5 4.34 -5 3.68 -5 3 C-2.5 1.375 -2.5 1.375 0 0 Z " fill="#E3E2E9" transform="translate(94,184)"/>
<path d="M0 0 C0.33 0 0.66 0 1 0 C0.67 3.3 0.34 6.6 0 10 C-0.99 9.34 -1.98 8.68 -3 8 C-2.09456151 5.28368454 -1.07525194 2.65228812 0 0 Z " fill="#393645" transform="translate(206,178)"/>
<path d="M0 0 C1.61949011 2.57213134 2.04408751 3.67669159 1.625 6.75 C1.41875 7.4925 1.2125 8.235 1 9 C0.01 8.01 -0.98 7.02 -2 6 C-1.34 4.02 -0.68 2.04 0 0 Z " fill="#2B2936" transform="translate(46,178)"/>
<path d="M0 0 C1.98 0.99 1.98 0.99 4 2 C4 2.99 4 3.98 4 5 C2.68 4.67 1.36 4.34 0 4 C0 2.68 0 1.36 0 0 Z " fill="#F9F8F9" transform="translate(224,174)"/>
<path d="M0 0 C0.66 0 1.32 0 2 0 C2.33 0.99 2.66 1.98 3 3 C1.0625 6.1875 1.0625 6.1875 -1 9 C-2.60031344 5.79937313 -1.03173691 3.27728194 0 0 Z " fill="#DEDDE3" transform="translate(242,163)"/>
<path d="M0 0 C-3.96 1.98 -3.96 1.98 -8 4 C-5.33333333 -1.33333333 -5.33333333 -1.33333333 0 0 Z " fill="#E7E6EB" transform="translate(50,162)"/>
<path d="M0 0 C0.99 0.33 1.98 0.66 3 1 C2.01 2.485 2.01 2.485 1 4 C-0.65 3.67 -2.3 3.34 -4 3 C-2.1875 1.4375 -2.1875 1.4375 0 0 Z " fill="#383744" transform="translate(157,158)"/>
<path d="M0 0 C0.99 0.33 1.98 0.66 3 1 C2.67 2.98 2.34 4.96 2 7 C0.4375 5.75 0.4375 5.75 -1 4 C-0.6875 1.8125 -0.6875 1.8125 0 0 Z " fill="#312E41" transform="translate(241,156)"/>
<path d="M0 0 C0 0.99 0 1.98 0 3 C-0.99 3.495 -0.99 3.495 -2 4 C-1.34 2.68 -0.68 1.36 0 0 Z M-4 3 C-3.34 3.33 -2.68 3.66 -2 4 C-2 5.32 -2 6.64 -2 8 C-2.99 8 -3.98 8 -5 8 C-4.67 6.35 -4.34 4.7 -4 3 Z " fill="#353340" transform="translate(59,144)"/>
<path d="M0 0 C0.66 1.32 1.32 2.64 2 4 C-0.86177057 5.43088528 -2.93375773 4.59991697 -6 4 C-4.03617993 2.49440461 -2.21736634 1.10868317 0 0 Z " fill="#363441" transform="translate(90,145)"/>
<path d="M0 0 C1.65 0 3.3 0 5 0 C5.66 1.32 6.32 2.64 7 4 C2.25 3.125 2.25 3.125 0 2 C0 1.34 0 0.68 0 0 Z " fill="#1D1B27" transform="translate(247,115)"/>
<path d="M0 0 C0.66 0.33 1.32 0.66 2 1 C2.33 1.99 2.66 2.98 3 4 C1.35 4.33 -0.3 4.66 -2 5 C-2 3.68 -2 2.36 -2 1 C-1.34 0.67 -0.68 0.34 0 0 Z " fill="#EBEBEF" transform="translate(141,113)"/>
<path d="M0 0 C1.0625 1.8125 1.0625 1.8125 2 4 C1.67 4.99 1.34 5.98 1 7 C0.34 7 -0.32 7 -1 7 C-1.33 7.99 -1.66 8.98 -2 10 C-1.54177532 6.53058454 -1.10868317 3.32604951 0 0 Z " fill="#1E1C2C" transform="translate(74,90)"/>
<path d="M0 0 C2.5 1.25 2.5 1.25 5 3 C5 4.32 5 5.64 5 7 C4.01 7 3.02 7 2 7 C1.855625 6.401875 1.71125 5.80375 1.5625 5.1875 C1.1127561 3.43849596 0.57107659 1.71322977 0 0 Z " fill="#34333D" transform="translate(134,84)"/>
</svg>
